<svg width="78" height="71" viewBox="0 0 78 71" fill="none" xmlns="http://www.w3.org/2000/svg">
<path d="M18.7684 70L72.8864 15.014C75.6129 12.2437 75.5952 7.79309 72.8467 5.04463C70.0672 2.26507 65.5551 2.28303 62.7978 5.08462L8.75879 59.9904L18.7684 70Z" fill="white"/>
<path d="M63.5046 24.3477L72.9195 14.4303C74.9258 12.3169 74.8805 8.98912 72.8175 6.93111C70.6809 4.79977 67.2081 4.84703 65.1303 7.03573L55.8984 16.7603L63.5046 24.3477Z" fill="#F0FAFF"/>
<path d="M18.7684 70L72.8864 15.014C75.6129 12.2437 75.5952 7.79309 72.8467 5.04463C70.0672 2.26507 65.5551 2.28303 62.7978 5.08462L8.75879 59.9904L18.7684 70Z" stroke="#007CC2" stroke-width="2" stroke-linecap="round" stroke-linejoin="round"/>
<path d="M18.7684 70L63.6765 24.1451L53.6669 14.1355L8.75879 59.9904L18.7684 70Z" fill="#56B3E8" stroke="#007CC2" stroke-width="2" stroke-linecap="round" stroke-linejoin="round"/>
<path d="M20.9999 67.7681L59.6857 28.1354L49.6761 18.1258L10.9902 57.7585L20.9999 67.7681Z" fill="white"/>
<path d="M20.5942 68.0437L39.599 48.295L26.0725 47.6863C24.5169 47.6186 23.029 48.2273 21.9469 49.3771L12.2754 59.7249L20.5942 68.0437Z" fill="#F0FAFF"/>
<path d="M20.9999 67.7681L59.6857 28.1354L49.6761 18.1258L10.9902 57.7585L20.9999 67.7681Z" stroke="#007CC2" stroke-width="2" stroke-linecap="round" stroke-linejoin="round"/>
<path d="M37.1646 37.4011L36.2178 38.3479" stroke="#007CC2" stroke-width="2" stroke-linecap="round" stroke-linejoin="round"/>
<path d="M49.4739 25.0919L40.1406 34.4252" stroke="#007CC2" stroke-width="2" stroke-linecap="round" stroke-linejoin="round"/>
<path d="M11.166 13.5265C6.56698 17.5845 4.7409 24.5507 6.70224 30.3671C7.91963 33.884 10.2868 36.9274 11.5042 40.4443C12.6539 43.9612 12.1129 48.6279 8.73122 50.2511" stroke="#56B3E8" stroke-width="2" stroke-linecap="round" stroke-linejoin="round"/>
<path d="M1.49468 26.3091C1.35942 27.9323 1.56231 29.5555 2.10337 31.111C3.05023 33.9516 5.01158 36.3864 5.95844 39.2269C6.43186 40.6472 6.56713 42.338 6.22897 43.826" stroke="#56B3E8" stroke-width="2" stroke-linecap="round" stroke-linejoin="round"/>
</svg>
