<svg width="80" height="80" viewBox="0 0 80 80" fill="none" xmlns="http://www.w3.org/2000/svg">
<path d="M78.3245 36.1622C73.6218 -9.67564 4.75696 -9.78375 1.67588 35.7838C0.108313 48.5946 5.40561 60.1622 13.4056 67.946L13.4597 68C13.5137 68.0541 15.4056 69.7838 15.5137 69.7838C16.1624 70.3244 16.9732 70.973 17.6759 71.4595C17.6759 71.4595 17.6759 71.4595 17.7299 71.4595C24.9732 76.5946 33.838 79.2973 43.6218 78.4325C45.3516 78.2703 46.5407 76.7027 46.2164 75.0271L45.7299 72.3244C45.4597 70.8649 44.1083 69.8379 42.6489 70C40.8651 70.1622 38.9191 70.1081 38.5948 70.0541H38.5407C28.2705 69.7838 17.1894 62.973 12.5407 52C12.5407 52 12.5407 51.946 12.4867 51.946C12.3245 51.6217 11.6759 49.8379 11.5137 49.3514C4.64885 28.4865 22.1083 7.78382 43.1353 10.1622H43.1894C48.5407 10.6487 53.1353 12.973 53.1353 12.973C59.2435 16 63.784 20.7027 66.2164 25.2433C66.9191 25.946 72.811 36.8649 68.5948 49.4595C75.6218 51.7298 73.9462 51.1892 76.7029 52.0541C78.3245 46.7568 78.757 41.7298 78.3245 36.1622Z" fill="white"/>
<path d="M35.784 1.72973C35.73 1.72973 35.73 1.72973 35.6759 1.72973C16.4867 3.83784 2.32456 19.7297 1.4597 38C1.4597 38 -0.270032 52 11.5138 66.1081C11.6759 66.3243 15.1354 69.8378 15.4056 69.8378C16.0543 70.3784 16.8651 71.027 17.5678 71.5135C17.5678 71.5135 17.5678 71.5135 17.6219 71.5135C24.9732 76.7027 33.4056 79.027 41.8921 78.5946C44.9192 78.4324 46.757 75.2432 45.5137 72.5946C43.9462 69.1892 40.4327 70.3784 38.4327 70.1081H38.3786C32.2165 69.9459 24.5408 67.027 19.3516 61.9459C19.2435 61.8378 17.8381 60.4865 17.784 60.3243C17.2975 60.0541 14.0002 55.7838 12.3786 52.0541C3.40564 34.1622 17.8381 9.13513 40.9732 10.1081C41.0813 10.1081 42.9732 10.2162 43.0273 10.2703C52.8651 11.1351 61.8921 17.6757 66.0543 25.3514C66.9732 26.2703 71.5678 35.5676 69.4056 46C68.9732 48.1081 70.2705 50.1622 72.2705 50.8108C74.7029 51.5676 77.2435 50.1081 77.73 47.5676C83.0813 20.3784 59.6219 -1.08108 35.784 1.72973Z" fill="#56B3E8"/>
<path d="M35.784 1.72979C35.7299 1.72979 35.7299 1.72979 35.6759 1.72979C16.4867 3.8379 2.32452 19.7298 1.45965 38.0001C1.45965 38.0001 1.18938 50.1622 11.5137 62.5406C11.6759 62.7568 15.1353 66.2703 15.4056 66.2703C16.0542 66.8109 16.8651 67.4595 17.5678 67.946C17.5678 67.946 17.5678 67.946 17.6218 67.946C24.9732 73.1352 33.4056 75.4595 41.8921 75.0271C43.5137 74.973 44.8651 73.946 45.5137 72.5406C43.9461 69.1352 40.4326 70.3244 38.4326 70.0541H38.3786C32.2164 69.892 24.5407 66.973 19.3515 61.892C19.2434 61.7838 17.838 60.4325 17.784 60.2703C17.2975 60.0001 14.0002 55.7298 12.3786 52.0001C10.2705 47.7838 9.45965 43.1893 9.72992 38.5947C8.7029 22.6487 21.838 5.72979 40.9732 6.48655C41.0813 6.48655 42.9732 6.59465 43.0272 6.64871C52.8651 7.51357 61.8921 14.0541 66.0542 21.7298C66.757 22.4325 71.5678 31.4055 69.4056 42.3784C69.2434 43.1893 69.3515 44.0001 69.6218 44.7028C71.1894 48.6487 76.9732 48.1622 77.784 44.0001C82.1624 21.6217 60.4326 -1.18913 35.784 1.72979Z" fill="#F0FAFF"/>
<path d="M67.7299 28.5406C69.1894 32.2162 70.811 38.6487 69.4056 45.8919C68.9732 48 70.2705 50.0541 72.2705 50.7027C74.7029 51.4595 77.2434 50 77.784 47.4595C84.3245 14.1081 47.5678 -10.3243 19.5137 7.29732M6.97319 20.0541C-0.97276 33.0811 -1.18898 50.8649 11.5137 66.0541C11.6218 66.1622 13.2975 67.8919 13.4056 67.946C13.4597 68 15.3516 69.7298 15.4597 69.7298C16.1083 70.2703 16.9191 70.9189 17.6218 71.4054C17.6218 71.4054 17.6218 71.4054 17.6759 71.4054C25.0272 76.5946 33.4597 78.9189 41.9462 78.4865C44.4867 78.3784 46.3786 75.946 45.8921 73.4595C45.5137 71.3514 43.6218 69.8919 41.5137 70C40.1083 70.0541 38.811 70.0541 38.5408 70H38.4867C32.3245 69.8379 24.6489 66.9189 19.4597 61.8379C19.3516 61.7298 17.9462 60.3784 17.8921 60.2162C17.4056 59.946 14.1083 55.6757 12.4867 51.946C12.4867 51.946 12.4867 51.8919 12.4326 51.8919C3.51373 34.0541 17.9462 9.02705 41.0813 10C41.1894 10 43.0813 10.1081 43.1353 10.1622C48.5408 10.6487 53.0813 12.973 53.0813 12.973C56.7029 14.7568 59.838 17.1892 62.2705 19.8379M12.5948 12.9189C12.2705 13.2433 12.0002 13.5676 11.6759 13.8379L12.5948 12.9189Z" stroke="#007CC2" stroke-width="2" stroke-linecap="round" stroke-linejoin="round"/>
<path d="M39.8383 46.7027C43.0625 46.7027 45.6762 44.089 45.6762 40.8648C45.6762 37.6407 43.0625 35.027 39.8383 35.027C36.6142 35.027 34.0005 37.6407 34.0005 40.8648C34.0005 44.089 36.6142 46.7027 39.8383 46.7027Z" fill="white"/>
<path d="M41.4597 46.7568C43.8181 46.7568 45.73 44.8449 45.73 42.4865C45.73 40.1281 43.8181 38.2162 41.4597 38.2162C39.1013 38.2162 37.1895 40.1281 37.1895 42.4865C37.1895 44.8449 39.1013 46.7568 41.4597 46.7568Z" fill="#56B3E8"/>
<path d="M39.8383 46.7027C43.0625 46.7027 45.6762 44.089 45.6762 40.8648C45.6762 37.6407 43.0625 35.027 39.8383 35.027C36.6142 35.027 34.0005 37.6407 34.0005 40.8648C34.0005 44.089 36.6142 46.7027 39.8383 46.7027Z" stroke="#007CC2" stroke-width="2" stroke-linecap="round" stroke-linejoin="round"/>
<path d="M43.5679 36.3243L49.0814 29.3513" stroke="#007CC2" stroke-width="2" stroke-linecap="round" stroke-linejoin="round"/>
<path d="M39.4058 16.2162V18.7568" stroke="#007CC2" stroke-width="2" stroke-linecap="round" stroke-linejoin="round"/>
<path d="M39.4058 62.054V64.5946" stroke="#007CC2" stroke-width="2" stroke-linecap="round" stroke-linejoin="round"/>
<path d="M15.2437 40.4324H17.7842" stroke="#007CC2" stroke-width="2" stroke-linecap="round" stroke-linejoin="round"/>
<path d="M61.0273 40.4324H63.5679" stroke="#007CC2" stroke-width="2" stroke-linecap="round" stroke-linejoin="round"/>
<path d="M35.5678 36.8648L21.3516 25.027" stroke="#007CC2" stroke-width="2" stroke-linecap="round" stroke-linejoin="round"/>
<path d="M70.6848 74.6585C66.4089 78.9344 59.4826 78.9344 55.2421 74.6585C50.9662 70.3826 50.9662 63.4564 55.2421 59.2158C59.518 54.9399 66.4442 54.9399 70.6848 59.2158C74.9607 63.4564 74.9607 70.3826 70.6848 74.6585Z" fill="white"/>
<path d="M70.8614 74.8C66.8329 78.8285 60.2953 78.8285 56.3022 74.8C52.2736 70.7714 52.2736 64.2692 56.3022 60.2407C60.3307 56.2122 66.8329 56.2122 70.8614 60.2407C74.8899 64.2339 74.8899 70.7714 70.8614 74.8Z" fill="#56B3E8"/>
<path d="M63.1226 56C65.8436 56.0354 68.6 57.0955 70.6849 59.2158C74.9608 63.4917 74.9608 70.4179 70.6849 74.6585C69.3774 75.966 67.7872 76.8848 66.091 77.4148M60.543 77.5915C58.5994 77.1675 56.7265 76.178 55.2069 74.6585C50.931 70.3826 50.931 63.4563 55.2069 59.2158C55.3483 59.0744 55.525 58.9331 55.6663 58.7917M58.4227 56.9895C58.8114 56.8128 59.2354 56.6361 59.6242 56.5301L58.4227 56.9895Z" stroke="#007CC2" stroke-width="2" stroke-linecap="round" stroke-linejoin="round"/>
<path d="M59.6592 65.0819C60.2246 66.142 61.3554 66.8841 62.6276 66.8841C64.5005 66.8841 65.9847 65.3646 65.9847 63.527C65.9847 61.6541 64.4652 60.1699 62.6276 60.1699C60.79 60.1699 59.2705 61.6894 59.2705 63.527C59.2705 64.0924 59.4119 64.6225 59.6592 65.0819Z" fill="white"/>
<path d="M63.1932 66.884C64.7546 66.884 66.0203 65.6183 66.0203 64.057C66.0203 62.4956 64.7546 61.2299 63.1932 61.2299C61.6319 61.2299 60.3662 62.4956 60.3662 64.057C60.3662 65.6183 61.6319 66.884 63.1932 66.884Z" fill="#F0FAFF"/>
<path d="M66.4088 67.3788C67.9637 68.5449 69.0945 70.0998 69.0945 71.902C69.0945 72.4674 68.5291 72.4674 68.5291 72.4674H64.3592H61.8149H57.645C57.645 72.4674 57.0796 72.4674 57.0796 71.902C57.0796 69.5697 58.9172 67.6968 61.1435 66.46" fill="white"/>
<path d="M62.239 67.3434C60.1894 68.0502 58.7759 69.9938 58.7759 72.008C58.7759 72.5028 59.2706 72.5028 59.2706 72.5028H62.8397H65.0307H68.5998C68.5998 72.5028 69.0946 72.5028 69.0946 72.008C69.0946 70.4532 68.3878 69.0396 67.1156 67.9442C66.7269 67.5908 66.3029 67.2727 65.8081 67.0961C64.7127 66.672 63.4758 66.9547 62.3804 67.3081C62.345 67.3434 62.2743 67.3434 62.239 67.3434Z" fill="#F0FAFF"/>
<path d="M61.0727 66.4954C61.5321 66.7428 62.0622 66.8841 62.6276 66.8841C64.5005 66.8841 65.9847 65.3646 65.9847 63.527C65.9847 61.6541 64.4652 60.1699 62.6276 60.1699C60.79 60.1699 59.2705 61.6894 59.2705 63.527C59.2705 63.9157 59.3412 64.2691 59.4472 64.6225" stroke="#007CC2" stroke-width="2" stroke-linecap="round" stroke-linejoin="round"/>
<path d="M66.4088 67.3788C67.9637 68.5449 69.0945 70.0998 69.0945 71.902C69.0945 72.4674 68.5291 72.4674 68.5291 72.4674H64.3592H61.8149H57.645C57.645 72.4674 57.0796 72.4674 57.0796 71.902C57.0796 69.5697 58.9172 67.6968 61.1435 66.46" stroke="#007CC2" stroke-width="2" stroke-linecap="round" stroke-linejoin="round"/>
</svg>
