<svg width="92" height="80" viewBox="0 0 92 80" fill="none" xmlns="http://www.w3.org/2000/svg">
<path d="M70.0853 78.7675H4.28682C2.48837 78.7675 1 77.2791 1 75.4807V23.4496C1 21.6512 2.48837 20.1628 4.28682 20.1628H70.0853C71.8837 20.1628 73.3721 21.6512 73.3721 23.4496V75.4807C73.3721 77.3411 71.8837 78.7675 70.0853 78.7675Z" fill="white"/>
<path d="M73.3721 23.4496V75.4807C73.3721 77.2791 71.8837 78.7675 70.0853 78.7675H4.28682C2.48837 78.7675 1 77.2791 1 75.4807V23.4496C1 21.6512 2.48837 20.1628 4.28682 20.1628H70.0853C71.8837 20.1628 73.3721 21.6512 73.3721 23.4496Z" fill="white"/>
<path d="M73.3721 74.1163V74.8605C73.3721 76.659 71.8837 78.1473 70.0853 78.1473H4.28682C2.48837 78.1473 1 76.659 1 74.8605V74.1163H73.3721Z" fill="#F0FAFF"/>
<path d="M73.3721 25.5581V44.1008C71.9457 44.4729 70.3953 44.6589 68.8449 44.6589C60.4728 44.6589 53.4031 39.3876 50.6744 31.9457C49.9302 29.8372 49.4961 27.6046 49.4961 25.3101C49.4961 24.2558 49.5581 23.2635 49.7442 22.2713H70.0852C71.8837 22.3333 73.3721 23.7597 73.3721 25.5581Z" fill="#56B3E8"/>
<path d="M22.2095 20.1628H22.4575" stroke="#007CC2" stroke-width="2" stroke-linecap="round" stroke-linejoin="round"/>
<path d="M29.4031 20.1628H70.0853C71.8837 20.1628 73.3721 21.6512 73.3721 23.4496V75.4807C73.3721 77.2791 71.8837 78.7675 70.0853 78.7675H4.28682C2.48837 78.7675 1 77.2791 1 75.4807V23.4496C1 21.6512 2.48837 20.1628 4.28682 20.1628H15.9457" stroke="#007CC2" stroke-width="2" stroke-linecap="round" stroke-linejoin="round"/>
<path d="M73.6822 25.5581V31.9457H1V25.5581C1 23.7597 2.48837 22.2713 4.28682 22.2713H70.3953C72.1938 22.3333 73.6822 23.7597 73.6822 25.5581Z" fill="#56B3E8"/>
<path d="M72.1938 25.5581V31.9457H50.6744C49.9302 29.8372 49.4961 27.6046 49.4961 25.3101C49.4961 24.2558 49.5581 23.2635 49.7442 22.2713H68.9069C70.7054 22.3333 72.1938 23.7597 72.1938 25.5581Z" fill="#56B3E8"/>
<path d="M1 32.0078V23.4496C1 21.6512 2.48837 20.1628 4.28682 20.1628H13.093" stroke="#007CC2" stroke-width="2" stroke-linecap="round" stroke-linejoin="round"/>
<path d="M6.08546 32.0078H5.8374" stroke="#007CC2" stroke-width="2" stroke-linecap="round" stroke-linejoin="round"/>
<path d="M17.9922 32.0078H9.93018" stroke="#007CC2" stroke-width="2" stroke-linecap="round" stroke-linejoin="round"/>
<path d="M28.3489 20.1628H70.0854C71.8838 20.1628 73.3722 21.6512 73.3722 23.4496V32.0078H23.2017" stroke="#007CC2" stroke-width="2" stroke-linecap="round" stroke-linejoin="round"/>
<path d="M13.0308 20.1628H19.5424" stroke="#007CC2" stroke-width="2" stroke-linecap="round" stroke-linejoin="round"/>
<path d="M10.9844 42.2403V41.31C10.9844 40.8759 11.3565 40.4418 11.8526 40.4418H16.3177C16.7518 40.4418 17.1859 40.8139 17.1859 41.31V45.7752C17.1859 46.2093 16.8138 46.6434 16.3177 46.6434H11.7906C11.3565 46.6434 10.9844 46.2713 10.9844 45.8372V44.0387" fill="#56B3E8"/>
<path d="M28.1009 46.6434H23.6358C23.2017 46.6434 22.7676 46.2713 22.7676 45.7752V41.31C22.7676 40.8759 23.1397 40.4418 23.6358 40.4418H28.1009C28.535 40.4418 28.9691 40.8139 28.9691 41.31V45.7752C28.9071 46.2713 28.535 46.6434 28.1009 46.6434Z" fill="#56B3E8"/>
<path d="M39.8836 46.6434H35.4185C34.9844 46.6434 34.5503 46.2713 34.5503 45.7752V41.31C34.5503 40.8759 34.9224 40.4418 35.4185 40.4418H39.8836C40.3177 40.4418 40.7518 40.8139 40.7518 41.31V45.7752C40.6898 46.2713 40.3177 46.6434 39.8836 46.6434Z" fill="#56B3E8"/>
<path d="M51.6668 46.6434H47.2017C46.7676 46.6434 46.3335 46.2713 46.3335 45.7752V41.31C46.3335 40.8759 46.7056 40.4418 47.2017 40.4418H51.6668C52.1009 40.4418 52.535 40.8139 52.535 41.31V45.7752C52.473 46.2713 52.1009 46.6434 51.6668 46.6434Z" fill="#56B3E8"/>
<path d="M63.4495 46.6434H58.9844C58.5503 46.6434 58.1162 46.2713 58.1162 45.7752V41.31C58.1162 40.8759 58.4883 40.4418 58.9844 40.4418H63.4495C63.8837 40.4418 64.3178 40.8139 64.3178 41.31V45.7752C64.2557 46.2713 63.8837 46.6434 63.4495 46.6434Z" fill="#56B3E8"/>
<path d="M16.3177 58.3024H11.8526C11.4185 58.3024 10.9844 57.9303 10.9844 57.4341V52.969C10.9844 52.5349 11.3565 52.1008 11.8526 52.1008H16.3177C16.7518 52.1008 17.1859 52.4729 17.1859 52.969V57.4341C17.1239 57.9303 16.7518 58.3024 16.3177 58.3024Z" fill="#56B3E8"/>
<path d="M28.1009 58.3024H23.6358C23.2017 58.3024 22.7676 57.9303 22.7676 57.4341V52.969C22.7676 52.5349 23.1397 52.1008 23.6358 52.1008H28.1009C28.535 52.1008 28.9691 52.4729 28.9691 52.969V57.4341C28.9071 57.9303 28.535 58.3024 28.1009 58.3024Z" fill="#56B3E8"/>
<path d="M40.6898 56.3178V57.4961C40.6898 57.9302 40.3177 58.3643 39.8216 58.3643H35.3565C34.9224 58.3643 34.4883 57.9922 34.4883 57.4961V53.031C34.4883 52.5969 34.8604 52.1628 35.3565 52.1628H39.8836C40.3177 52.1628 40.6898 52.5349 40.6898 52.969V56.3178Z" fill="#56B3E8"/>
<path d="M51.6668 58.3024H47.2017C46.7676 58.3024 46.3335 57.9303 46.3335 57.4341V52.969C46.3335 52.5349 46.7056 52.1008 47.2017 52.1008H51.6668C52.1009 52.1008 52.535 52.4729 52.535 52.969V57.4341C52.473 57.9303 52.1009 58.3024 51.6668 58.3024Z" fill="#56B3E8"/>
<path d="M63.4495 58.3024H58.9844C58.5503 58.3024 58.1162 57.9303 58.1162 57.4341V52.969C58.1162 52.5349 58.4883 52.1008 58.9844 52.1008H63.4495C63.8837 52.1008 64.3178 52.4729 64.3178 52.969V57.4341C64.2557 57.9303 63.8837 58.3024 63.4495 58.3024Z" fill="#56B3E8"/>
<path d="M16.3177 70.0232H11.8526C11.4185 70.0232 10.9844 69.6511 10.9844 69.155V64.6899C10.9844 64.2558 11.3565 63.8217 11.8526 63.8217H16.3177C16.7518 63.8217 17.1859 64.1938 17.1859 64.6899V69.155C17.1239 69.6511 16.7518 70.0232 16.3177 70.0232Z" fill="#56B3E8"/>
<path d="M28.1009 70.0232H23.6358C23.2017 70.0232 22.7676 69.6511 22.7676 69.155V64.6899C22.7676 64.2558 23.1397 63.8217 23.6358 63.8217H28.1009C28.535 63.8217 28.9691 64.1938 28.9691 64.6899V69.155C28.9071 69.6511 28.535 70.0232 28.1009 70.0232Z" fill="#56B3E8"/>
<path d="M39.8836 70.0232H35.4185C34.9844 70.0232 34.5503 69.6511 34.5503 69.155V64.6899C34.5503 64.2558 34.9224 63.8217 35.4185 63.8217H39.8836C40.3177 63.8217 40.7518 64.1938 40.7518 64.6899V69.155C40.6898 69.6511 40.3177 70.0232 39.8836 70.0232Z" fill="#56B3E8"/>
<path d="M46.3335 64.6899V69.2171C46.3335 69.6512 46.7056 70.0853 47.2017 70.0853H51.6668C52.1009 70.0853 52.535 69.7132 52.535 69.2171V64.6899C52.535 64.2558 52.163 63.9458 51.7909 63.9458H47.2017C46.7056 63.8837 46.3335 64.2558 46.3335 64.6899Z" fill="#56B3E8"/>
<path d="M60.7207 4.16279C63.7595 2.17829 67.4184 1 71.3254 1C81.9921 1 90.6742 9.68217 90.6742 20.3488C90.6742 31.0155 81.9921 39.6977 71.3254 39.6977C60.6587 39.6977 51.9766 31.0155 51.9766 20.3488C51.9766 13.5891 55.4494 7.63566 60.7207 4.16279Z" fill="#56B3E8"/>
<path d="M65.248 1.99221C65.4341 1.9302 65.5581 1.86818 65.7442 1.86818C67.5426 1.31004 69.4031 1.06198 71.3256 1.06198C75.6046 1.06198 79.6356 2.48834 82.7984 4.84493" stroke="#007CC2" stroke-width="2" stroke-linecap="round" stroke-linejoin="round"/>
<path d="M90.4262 17.4961C90.5502 18.4264 90.6122 19.3566 90.6122 20.3489C90.6122 31.0155 81.93 39.6977 71.2634 39.6977C60.5967 39.6977 51.9146 31.0155 51.9146 20.3489C51.9146 14.3333 54.6432 9.00002 58.9223 5.46513" stroke="#007CC2" stroke-width="2" stroke-linecap="round" stroke-linejoin="round"/>
<path d="M87.2012 9.31012C87.4492 9.6202 87.6353 9.93027 87.8213 10.3024" stroke="#007CC2" stroke-width="2" stroke-linecap="round" stroke-linejoin="round"/>
<path d="M81.9919 27.6047L70.7671 21.2171L72.6896 11.7907" stroke="white" stroke-width="2" stroke-linecap="round" stroke-linejoin="round"/>
<path d="M71.0772 22.4573C71.9335 22.4573 72.6276 21.7632 72.6276 20.9069C72.6276 20.0507 71.9335 19.3566 71.0772 19.3566C70.221 19.3566 69.5269 20.0507 69.5269 20.9069C69.5269 21.7632 70.221 22.4573 71.0772 22.4573Z" stroke="white" stroke-width="2" stroke-linecap="round" stroke-linejoin="round"/>
</svg>
