<svg width="62" height="63" viewBox="0 0 62 63" fill="none" xmlns="http://www.w3.org/2000/svg">
<path d="M31.0708 61.1415C47.6784 61.1415 61.1415 47.6784 61.1415 31.0708C61.1415 14.4631 47.6784 1 31.0708 1C14.4631 1 1 14.4631 1 31.0708C1 47.6784 14.4631 61.1415 31.0708 61.1415Z" fill="#56B3E8"/>
<path d="M32.1985 61.1415C48.1833 61.1415 61.1416 48.1832 61.1416 32.1984C61.1416 16.2136 48.1833 3.25531 32.1985 3.25531C16.2136 3.25531 3.25537 16.2136 3.25537 32.1984C3.25537 48.1832 16.2136 61.1415 32.1985 61.1415Z" fill="#F0FAFF"/>
<path d="M60.9233 35.0073C59.0644 49.7693 46.38 61.1415 31.1806 61.1415C14.5597 61.1415 1.10986 47.6917 1.10986 31.0708C1.10986 14.4498 14.5597 1 31.1806 1C35.4452 1 39.6004 1.87478 43.2089 3.51501" stroke="#007CC2" stroke-width="2" stroke-linecap="round" stroke-linejoin="round"/>
<path d="M55.8931 14.1217C57.3146 16.1993 58.5174 18.605 59.3922 21.0106" stroke="#007CC2" stroke-width="2" stroke-linecap="round" stroke-linejoin="round"/>
<path d="M16.0146 10.7185C16.0146 8.98025 14.4088 7.4 12 7.4C7.74453 7.4 6.62044 10.9556 6.62044 10.9556L1 8.50617C1 8.50617 3.24818 1 12.2409 1C18.7445 1 23 5.18765 23 9.84938C23 17.9877 14.8905 17.9877 14.8905 23.7556H8.86861C8.86861 23.7556 8.38686 22.6494 8.38686 21.7802C8.38686 15.3012 16.0146 15.3012 16.0146 10.7185ZM11.5985 26.363C13.6058 26.363 15.2117 27.9432 15.2117 29.6815C15.2117 31.4198 13.6058 33 11.5985 33C9.59124 33 7.9854 31.4198 7.9854 29.6815C7.9854 27.8642 9.51095 26.363 11.5985 26.363Z" fill="white" stroke="#007CC2" stroke-width="2" stroke-linecap="round" stroke-linejoin="round" transform="translate(19,15)" />
</svg>
