<svg width="119" height="99" viewBox="0 10 65 99" fill="none" xmlns="http://www.w3.org/2000/svg">
<path d="M70.6407 29.7695V29.878C70.478 49.4576 69.7186 62.2576 65 72.2373C60.3356 82.2169 51.7661 89.3763 36.0915 97.8915C35.983 97.9458 35.9288 98 35.8203 98C4.14576 80.9153 1.27119 69.0915 1 29.7695C1.27119 29.7695 1.59661 29.7695 1.92203 29.7695C10.7627 29.7695 25.461 25.0508 35.8203 18C46.6136 25.322 61.9085 30.0949 70.6407 29.7695Z" fill="white"/>
<path d="M70.6405 29.878C70.4778 49.4576 69.7185 62.2576 64.9998 72.2373C60.3354 82.217 51.7659 89.3763 36.0914 97.8915C36.0371 97.8373 36.0371 97.7831 36.0914 97.7831C8.32186 78.5288 3.60322 71.5864 3.33203 32.2644C12.0642 32.5898 26.3829 26.9492 37.1761 19.6271L37.9897 20.1695C47.9693 26.9492 61.7456 29.7695 70.6405 29.878Z" fill="#56B3E8"/>
<path d="M70.5865 34.7593C70.5865 33.1322 70.6407 31.4508 70.6407 29.7695C61.9085 30.0949 46.6136 25.322 35.8204 18C34.0305 19.1932 32.1322 20.3322 30.1797 21.4169" stroke="#007CC2" stroke-width="2" stroke-linecap="round" stroke-linejoin="round"/>
<path d="M70.478 39.9119C70.478 39.261 70.5323 38.6102 70.5323 37.9593" stroke="#007CC2" stroke-width="2" stroke-linecap="round" stroke-linejoin="round"/>
<path d="M25.2983 23.8034C16.5119 27.7085 7.12881 29.9864 1 29.7695C1.27119 69.0915 4.14576 80.9153 35.8203 98C60.5525 84.6576 67.7119 74.5153 69.8271 52.0068" stroke="#007CC2" stroke-width="2" stroke-linecap="round" stroke-linejoin="round"/>
<path d="M64.9999 35.0847C64.9999 35.3017 64.9999 35.5186 64.9999 35.7356C64.7288 51.8441 63.644 61.9864 59.9559 69.8509C56.2677 77.661 49.5966 83.8441 36.5796 91.2203C36.3627 91.3288 36.0915 91.4915 35.8203 91.6542C22.3152 84.061 15.4271 77.8237 11.6847 69.8509C7.94232 61.878 6.91181 51.5729 6.64062 35.0847C15.6983 34 26.8711 29.9864 35.8203 24.6712C36.5254 25.1051 37.2305 25.539 37.9898 25.9186C40.5932 27.3831 43.3593 28.6847 46.1796 29.878C52.5796 32.4814 59.2508 34.3797 64.9999 35.0847Z" fill="white"/>
<path d="M65 35.7356C64.7288 51.8441 63.644 61.9864 59.9559 69.8508C56.2678 77.661 49.5966 83.8441 36.5796 91.2203C29.5288 87.1525 24.4305 83.4102 20.6881 79.5593C17.922 76.6847 15.9152 73.7559 14.3966 70.5559C10.6542 62.6373 9.62369 52.4407 9.40674 36.061C18.3017 34.9763 29.2576 31.1254 38.044 25.8644C38.1525 25.8102 38.261 25.7559 38.3152 25.7017C40.8101 27.1661 43.4678 28.5763 46.1796 29.8237C50.7356 31.8847 55.5084 33.5661 60.0101 34.7051C61.7457 35.139 63.4271 35.4644 65 35.7356Z" fill="#F0FAFF"/>
<path opacity="0.5" d="M64.9999 35.7356C64.7287 51.8441 63.6439 61.9864 59.9558 69.8508C56.2676 77.661 49.5965 83.8441 36.5795 91.2203C29.5287 87.1525 24.4304 83.4102 20.688 79.5593C34.627 77.8237 55.7253 72.9966 64.6202 35.1932C66.3015 35.6271 63.427 35.4644 64.9999 35.7356Z" fill="#56B3E8"/>
<path d="M9.2438 62.8C9.18957 62.4746 9.08109 62.2034 9.02686 61.878" stroke="#007CC2" stroke-width="2" stroke-linecap="round" stroke-linejoin="round"/>
<path d="M7.77961 55.0983C7.07452 49.5661 6.7491 43.0576 6.64062 35.0847C15.6983 34 26.8711 29.9864 35.8203 24.6712C44.7694 30.0407 55.9423 34 64.9999 35.0847C64.7288 51.6271 63.6982 61.878 59.9559 69.8509C56.2135 77.8237 49.3254 84.061 35.8203 91.6542C22.3152 84.061 15.4271 77.8237 11.6847 69.8509C11.3593 69.2 11.0881 68.5492 10.8169 67.8441" stroke="#007CC2" stroke-width="2" stroke-linecap="round" stroke-linejoin="round"/>
<path opacity="0.7" d="M30.8119 68C31.316 68.0021 31.8003 67.8141 32.1718 67.4764C32.5431 67.1388 32.775 66.6763 32.8273 66.1799C33.0152 64.4338 33.6024 62.9459 34.3881 61.9194C35.175 60.8916 36.0983 60.3932 36.9999 60.3932C37.899 60.3932 38.8256 60.8949 39.6159 61.9307C40.4045 62.9643 40.9925 64.4599 41.176 66.2079L41.1761 66.209C41.2278 66.696 41.455 67.1498 41.8187 67.4817C42.1828 67.814 42.6579 68.0001 43.1532 68H43.1534C43.6235 67.9998 44.077 67.8346 44.4375 67.5357C44.7977 67.2371 45.0427 66.824 45.1351 66.3678L45.1357 66.365C45.3686 65.198 45.4852 64.0103 45.4837 62.8197C45.4979 60.8004 45.1526 58.7964 44.466 56.9043C45.2867 55.8991 45.9284 54.7549 46.3608 53.5231C46.8595 52.1028 47.0698 50.5951 46.9797 49.0908C46.9661 45.3495 44.5423 42 41.1163 42H41.1162C40.1194 42 39.1399 42.2583 38.2703 42.7494C37.8028 43.0133 37.3757 43.3397 36.9993 43.7179C36.6231 43.3405 36.1965 43.0147 35.7299 42.7511C34.8611 42.2603 33.8828 42.0014 32.8868 42H32.8854C29.4577 42 27.0336 45.3493 27.0201 49.0909C26.9304 50.5952 27.141 52.1027 27.6396 53.5228C28.072 54.7546 28.7135 55.8989 29.534 56.9043C28.848 58.7964 28.5033 60.8002 28.5179 62.8194C28.5154 64.0231 28.6339 65.224 28.8717 66.4033L28.8725 66.4072C28.9642 66.8532 29.2049 67.2567 29.5581 67.5481C29.9105 67.8389 30.3531 67.9996 30.8119 68ZM30.8119 68C30.8109 68 30.8099 68 30.8089 68L30.8146 67L30.8157 68C30.8144 68 30.8131 68 30.8119 68Z" fill="#007CC2" stroke="#007CC2" stroke-width="2" stroke-linecap="round" stroke-linejoin="round"/>
<path d="M30.8329 64.1128C31.2406 60.4784 33.3994 57.7101 35.9999 57.7101C38.6005 57.7101 40.7718 60.5011 41.1705 64.1408L28.852 64.2388C28.8982 64.4541 29.0192 64.6474 29.1945 64.786C29.3698 64.9247 29.5888 65.0002 29.8146 65C30.067 65.0014 30.3109 64.9114 30.4991 64.7474C30.6873 64.5835 30.8062 64.3574 30.8329 64.1128ZM30.8329 64.1128L31.827 64.2214C31.827 64.2219 31.8269 64.2224 31.8268 64.2229M30.8329 64.1128L31.8267 64.2243C31.8267 64.2238 31.8268 64.2234 31.8268 64.2229M31.8268 64.2229C32.0132 62.5635 32.5954 61.1492 33.3754 60.1727C34.155 59.1968 35.0803 58.7101 35.9999 58.7101C36.9171 58.7101 37.8456 59.2001 38.6286 60.1834C39.4115 61.1669 39.9945 62.5885 40.1764 64.2497L40.1766 64.2509C40.2307 64.7395 40.4678 65.1858 40.8344 65.5065L41.4927 64.7538L40.8344 65.5065C41.2004 65.8266 41.6703 66.0001 42.1532 66H42.1534C42.6121 65.9998 43.0601 65.8456 43.4214 65.5586C43.7832 65.2711 44.037 64.8667 44.1334 64.4106L44.134 64.4077C44.368 63.2843 44.4852 62.1407 44.4837 60.9942C44.4978 59.0633 44.1559 57.1479 43.4767 55.3389C44.2884 54.3796 44.9252 53.2878 45.3563 52.1111C45.858 50.7417 46.0702 49.2867 45.9797 47.8343C45.9649 44.1935 43.5066 41 40.1163 41H40.1162C39.1273 41 38.1533 41.2455 37.286 41.7148C36.8135 41.9705 36.3807 42.2883 35.9993 42.6583C35.6181 42.2891 35.1859 41.9719 34.7141 41.7164C33.8477 41.2474 32.8749 41.0014 31.8867 41H31.8854C28.4934 41 26.0348 44.1934 26.0202 47.8345C25.9301 49.2868 26.1425 50.7416 26.6441 52.1109C27.0752 53.2876 27.7118 54.3794 28.5233 55.3389L31.8268 64.2229Z" fill="white" stroke="#007CC2" stroke-width="2" stroke-linecap="round" stroke-linejoin="round"/>
</svg>
