<svg width="102" height="52" viewBox="0 0 102 52" fill="none" xmlns="http://www.w3.org/2000/svg">
<path d="M30.0367 44.2157H21.4885C21.1493 44.2157 20.8779 43.9444 20.8779 43.6052L21.7599 40.0095C21.7599 39.6703 22.0313 39.3989 22.3705 39.3989H31.8684H91.977H97.6758C98.015 39.3989 98.2864 39.6703 98.2864 40.0095L96.7938 43.6052C96.7938 43.9444 96.5225 44.2157 96.1832 44.2157H93.8766H30.0367Z" fill="#F0FAFF"/>
<path d="M75.4912 39.4668L80.6472 9.41247C80.7829 8.6662 81.3935 8.1913 82.1398 8.1913H93.7409C95.2334 8.1913 96.5224 9.1411 96.9973 10.5658L100.525 21.5563C100.864 22.6418 100.864 23.7951 100.593 24.8806L96.4546 39.4668" fill="#F0FAFF"/>
<path d="M1.61058 51H1" stroke="#56B3E8" stroke-width="2" stroke-linecap="round" stroke-linejoin="round"/>
<path d="M19.7249 51H4.18896" stroke="#56B3E8" stroke-width="2" stroke-linecap="round" stroke-linejoin="round"/>
<path d="M23.0491 51H22.4385" stroke="#56B3E8" stroke-width="2" stroke-linecap="round" stroke-linejoin="round"/>
<path d="M74.474 51H26.4414" stroke="#56B3E8" stroke-width="2" stroke-linecap="round" stroke-linejoin="round"/>
<path d="M96.8619 51H77.1875" stroke="#56B3E8" stroke-width="2" stroke-linecap="round" stroke-linejoin="round"/>
<path d="M100.322 51H99.3721" stroke="#56B3E8" stroke-width="2" stroke-linecap="round" stroke-linejoin="round"/>
<path d="M84.8531 50.7286C87.9255 50.7286 90.4162 48.2379 90.4162 45.1655C90.4162 42.0931 87.9255 39.6024 84.8531 39.6024C81.7807 39.6024 79.29 42.0931 79.29 45.1655C79.29 48.2379 81.7807 50.7286 84.8531 50.7286Z" fill="#56B3E8" stroke="#007CC2" stroke-width="2" stroke-linecap="round" stroke-linejoin="round"/>
<path d="M71.4746 29.2225L73.1707 19.3175L74.8667 9.41247C75.0024 8.6662 75.613 8.1913 76.3593 8.1913H89.1165C90.609 8.1913 91.8981 9.1411 92.373 10.5658L95.9008 21.5563C96.24 22.6418 96.24 23.7951 95.9686 24.8806L96.4548 39.4668" stroke="#007CC2" stroke-width="2" stroke-linecap="round" stroke-linejoin="round"/>
<path d="M76.2373 35.1248L76.6444 32.9538" stroke="#007CC2" stroke-width="2" stroke-linecap="round" stroke-linejoin="round"/>
<path d="M30.0367 44.2157H21.4885C21.1493 44.2157 20.8779 43.9444 20.8779 43.6052L21.7599 40.0095C21.7599 39.6703 22.0313 39.3989 22.3705 39.3989H31.8684" stroke="#007CC2" stroke-width="2" stroke-linecap="round" stroke-linejoin="round"/>
<path d="M75.6272 44.2157H48.2866" stroke="#007CC2" stroke-width="2" stroke-linecap="round" stroke-linejoin="round"/>
<path d="M92.0449 39.4668H97.7437C98.0829 39.4668 98.3543 39.7381 98.3543 40.0774L96.8618 43.673C96.8618 44.0122 96.5904 44.2836 96.2512 44.2836H93.9445" stroke="#007CC2" stroke-width="2" stroke-linecap="round" stroke-linejoin="round"/>
<path d="M46.3862 39.4668H77.526" stroke="#007CC2" stroke-width="2" stroke-linecap="round" stroke-linejoin="round"/>
<path d="M29.2901 4.18859L29.6293 2.28899C29.765 1.54272 30.3756 1.06783 31.1218 1.06783H37.092H70.8098H75.0839C75.5588 1.06783 75.9658 1.27135 76.2372 1.61057C76.5085 1.94978 76.6442 2.42468 76.5764 2.83173L70.5384 34.2429C70.4027 34.9213 69.7921 35.464 69.0459 35.464H25.7623C25.2874 35.464 24.8803 35.2605 24.6089 34.9213C24.3376 34.5821 24.2019 34.1072 24.2697 33.7001L25.3552 27.3908L29.2901 4.18859Z" fill="white"/>
<path d="M32.0041 6.02035L32.2755 4.1886C32.4112 3.51018 32.9539 3.03528 33.7002 3.03528H39.3311H71.1493H75.2198C75.6269 3.03528 76.034 3.23881 76.3053 3.57802C76.5767 3.91723 76.7124 4.32429 76.5767 4.73134L70.8779 34.3107C70.7422 34.9892 70.1995 35.4641 69.5211 35.4641H28.7476C28.3406 35.4641 27.9335 35.2605 27.6622 34.9892C27.3908 34.7178 27.2551 34.2429 27.323 33.8358L28.3406 27.8657L32.0041 6.02035Z" fill="#56B3E8"/>
<path d="M26.373 21.5563L26.9158 18.1642" stroke="#007CC2" stroke-width="2" stroke-linecap="round" stroke-linejoin="round"/>
<path d="M70.8098 1H75.0839C75.5588 1 75.9658 1.20353 76.2372 1.54274C76.5085 1.88195 76.6442 2.35685 76.5764 2.76391L70.5384 34.175C70.4027 34.8535 69.7921 35.3962 69.0459 35.3962H25.7623C25.2874 35.3962 24.8803 35.1927 24.6089 34.8535C24.3376 34.5143 24.2019 34.0394 24.2697 33.6323L25.3552 27.3229" stroke="#007CC2" stroke-width="2" stroke-linecap="round" stroke-linejoin="round"/>
<path d="M45.0978 31.0543H42.0449" stroke="#007CC2" stroke-width="2" stroke-linecap="round" stroke-linejoin="round"/>
<path d="M68.164 23.5237L66.9428 29.7652C66.8071 30.4437 66.1966 30.9864 65.4503 30.9864H49.3716" stroke="#007CC2" stroke-width="2" stroke-linecap="round" stroke-linejoin="round"/>
<path d="M29.2905 4.18859L29.6297 2.28899C29.7654 1.54272 30.376 1.06783 31.1223 1.06783H65.996" stroke="#007CC2" stroke-width="2" stroke-linecap="round" stroke-linejoin="round"/>
<path d="M27.8657 12.6689L28.4763 9.07324" stroke="#007CC2" stroke-width="2" stroke-linecap="round" stroke-linejoin="round"/>
<path d="M28.4766 8.86972H35.0573" stroke="#007CC2" stroke-width="2" stroke-linecap="round" stroke-linejoin="round"/>
<path d="M15.9932 8.86972H28.4762" stroke="#007CC2" stroke-width="2" stroke-linecap="round" stroke-linejoin="round"/>
<path d="M26.9839 18.0285H32.8184" stroke="#007CC2" stroke-width="2" stroke-linecap="round" stroke-linejoin="round"/>
<path d="M24.8125 18.0285H26.9835" stroke="#007CC2" stroke-width="2" stroke-linecap="round" stroke-linejoin="round"/>
<path d="M16.7393 18.0285H21.3526" stroke="#007CC2" stroke-width="2" stroke-linecap="round" stroke-linejoin="round"/>
<path d="M39.1275 50.7286C42.2 50.7286 44.6906 48.2379 44.6906 45.1655C44.6906 42.0931 42.2 39.6024 39.1275 39.6024C36.0551 39.6024 33.5645 42.0931 33.5645 45.1655C33.5645 48.2379 36.0551 50.7286 39.1275 50.7286Z" fill="#56B3E8" stroke="#007CC2" stroke-width="2" stroke-linecap="round" stroke-linejoin="round"/>
<path d="M39.1273 47.8114C40.5886 47.8114 41.7732 46.6268 41.7732 45.1655C41.7732 43.7043 40.5886 42.5197 39.1273 42.5197C37.666 42.5197 36.4814 43.7043 36.4814 45.1655C36.4814 46.6268 37.666 47.8114 39.1273 47.8114Z" fill="#F0FAFF" stroke="#007CC2" stroke-width="2" stroke-linecap="round" stroke-linejoin="round"/>
<path d="M84.8534 47.8114C86.3147 47.8114 87.4992 46.6268 87.4992 45.1655C87.4992 43.7043 86.3147 42.5197 84.8534 42.5197C83.3921 42.5197 82.2075 43.7043 82.2075 45.1655C82.2075 46.6268 83.3921 47.8114 84.8534 47.8114Z" fill="#F0FAFF" stroke="#007CC2" stroke-width="2" stroke-linecap="round" stroke-linejoin="round"/>
<path d="M20.7427 27.3229H30.512" stroke="#007CC2" stroke-width="2" stroke-linecap="round" stroke-linejoin="round"/>
<path d="M96.0364 24.5414H79.1436L80.7718 12.6689H93.0513" stroke="#007CC2" stroke-width="2" stroke-linecap="round" stroke-linejoin="round"/>
<path d="M83.7681 29.2903H87.4994" stroke="#007CC2" stroke-width="2" stroke-linecap="round" stroke-linejoin="round"/>
<path d="M54.1826 26.3926C59.9293 26.3926 64.5879 21.734 64.5879 15.9873C64.5879 10.2406 59.9293 5.58205 54.1826 5.58205C48.4359 5.58205 43.7773 10.2406 43.7773 15.9873C43.7773 21.734 48.4359 26.3926 54.1826 26.3926Z" fill="white"/>
<path fill-rule="evenodd" clip-rule="evenodd" d="M53.6656 10.7975C53.1133 10.7975 52.6656 11.2452 52.6656 11.7975V14.498L49.9648 14.498C49.4126 14.498 48.9648 14.9457 48.9648 15.498L48.9648 16.2734C48.9648 16.8257 49.4126 17.2734 49.9648 17.2734H52.6656V19.9739C52.6656 20.5262 53.1133 20.9739 53.6656 20.9739H54.441C54.9933 20.9739 55.441 20.5262 55.441 19.9739V17.2734H58.1412C58.6935 17.2734 59.1412 16.8257 59.1412 16.2734V15.498C59.1412 14.9457 58.6935 14.498 58.1412 14.498L55.441 14.498V11.7975C55.441 11.2452 54.9933 10.7975 54.441 10.7975H53.6656Z" fill="white"/>
<path d="M52.6656 14.498V14.998H53.1656V14.498H52.6656ZM49.9648 14.498L49.9648 13.998H49.9648V14.498ZM48.9648 15.498H48.4648H48.9648ZM48.9648 16.2734H49.4648H48.9648ZM52.6656 17.2734H53.1656V16.7734H52.6656V17.2734ZM55.441 17.2734V16.7734H54.941V17.2734H55.441ZM58.1412 14.498V14.998V14.498ZM55.441 14.498H54.941V14.998H55.441V14.498ZM53.1656 11.7975C53.1656 11.5214 53.3895 11.2975 53.6656 11.2975V10.2975C52.8372 10.2975 52.1656 10.9691 52.1656 11.7975H53.1656ZM53.1656 14.498V11.7975H52.1656V14.498H53.1656ZM49.9648 14.998H52.6656L52.6656 13.998L49.9648 13.998L49.9648 14.998ZM49.4648 15.498C49.4648 15.2219 49.6887 14.998 49.9648 14.998V13.998C49.1364 13.998 48.4648 14.6696 48.4648 15.498H49.4648ZM49.4648 16.2734L49.4648 15.498H48.4648L48.4648 16.2734H49.4648ZM49.9648 16.7734C49.6887 16.7734 49.4648 16.5495 49.4648 16.2734H48.4648C48.4648 17.1018 49.1364 17.7734 49.9648 17.7734V16.7734ZM52.6656 16.7734H49.9648V17.7734H52.6656V16.7734ZM53.1656 19.9739V17.2734H52.1656V19.9739H53.1656ZM53.6656 20.4739C53.3895 20.4739 53.1656 20.25 53.1656 19.9739H52.1656C52.1656 20.8023 52.8372 21.4739 53.6656 21.4739V20.4739ZM54.441 20.4739H53.6656V21.4739H54.441V20.4739ZM54.941 19.9739C54.941 20.25 54.7171 20.4739 54.441 20.4739V21.4739C55.2694 21.4739 55.941 20.8023 55.941 19.9739H54.941ZM54.941 17.2734V19.9739H55.941V17.2734H54.941ZM58.1412 16.7734H55.441V17.7734H58.1412V16.7734ZM58.6412 16.2734C58.6412 16.5495 58.4174 16.7734 58.1412 16.7734V17.7734C58.9697 17.7734 59.6412 17.1018 59.6412 16.2734H58.6412ZM58.6412 15.498V16.2734H59.6412V15.498H58.6412ZM58.1412 14.998C58.4174 14.998 58.6412 15.2219 58.6412 15.498H59.6412C59.6412 14.6696 58.9697 13.998 58.1412 13.998V14.998ZM55.441 14.998L58.1412 14.998V13.998L55.441 13.998V14.998ZM54.941 11.7975V14.498H55.941V11.7975H54.941ZM54.441 11.2975C54.7171 11.2975 54.941 11.5214 54.941 11.7975H55.941C55.941 10.9691 55.2694 10.2975 54.441 10.2975V11.2975ZM53.6656 11.2975H54.441V10.2975H53.6656V11.2975Z" fill="#007CC2"/>
<path d="M47.7987 7.7938C49.5581 6.43659 51.7698 5.58205 54.1826 5.58205C59.9131 5.58205 64.5879 10.2066 64.5879 15.9873C64.5879 21.7178 59.9633 26.3926 54.1826 26.3926C48.4019 26.3926 43.7773 21.768 43.7773 15.9873C43.7773 14.429 44.1292 12.9713 44.7324 11.6644" stroke="#007CC2" stroke-width="2" stroke-linecap="round" stroke-linejoin="round"/>
<path d="M84.707 17.8928L87.7599 20.9457" stroke="#007CC2" stroke-width="2" stroke-linecap="round" stroke-linejoin="round"/>
<path d="M83.0107 16.1289L83.4856 16.6038" stroke="#007CC2" stroke-width="2" stroke-linecap="round" stroke-linejoin="round"/>
<path d="M88.5059 18.6391L90.8125 20.9457" stroke="#007CC2" stroke-width="2" stroke-linecap="round" stroke-linejoin="round"/>
</svg>
