<svg width="91" height="82" viewBox="0 0 91 82" fill="none" xmlns="http://www.w3.org/2000/svg">
<path d="M11 80.9444C11 80.9444 73.4323 80.9444 79.9924 80.9444C79.9924 72.0493 73.4878 58.9847 60.2008 58.9291C53.5295 58.9291 52.918 58.54 52.918 58.54V50.8124C57.8103 46.754 61.9243 42.0285 63.0917 35.9131C66.1494 35.246 68.0952 32.4663 67.7616 29.353C67.6505 27.9632 66.7609 26.7401 66.7609 25.3502C66.7054 21.4587 66.7054 17.845 64.148 13.0083C60.312 5.7811 52.7512 1 44.1341 1C42.4107 1 40.6873 1.22238 39.0195 1.61154C35.4058 2.44545 31.959 4.22446 29.1793 6.6706C26.2884 9.22794 24.0646 12.5636 22.8972 16.2328C21.6741 19.9576 21.4517 23.8492 21.952 27.6296C22.0632 28.2967 22.23 28.1855 21.7853 28.7971C21.0069 29.7978 20.2286 31.5212 20.9514 33.6338C22.1188 36.8582 24.3982 36.4691 26.5108 38.3037C26.3996 38.3593 26.2884 38.4705 26.1772 38.5261L23.6755 39.3044C9.33218 43.8075 7.71994 59.0959 22.4524 61.9312L19.9507 62.5983C14.2801 66.9347 11 74.6067 11 80.9444Z" fill="white"/>
<path d="M30.0688 45.8061L30.2355 45.1946L31.5142 46.1953L38.1299 51.6435L38.0187 53.2001L37.9075 55.2571L37.6852 58.7596V58.9263C37.6852 58.9263 36.6845 58.8152 30.9027 54.5344C25.1765 50.2537 28.7901 47.3628 30.0688 45.8061ZM74.2105 65.6532C74.1549 65.5976 74.1549 65.5976 74.0993 65.542C73.4322 64.7637 72.7095 63.9854 71.8756 63.3739C71.7644 63.2627 71.6532 63.2071 71.542 63.0959C71.4864 63.0959 71.4864 63.0403 71.4864 63.0403C70.2633 62.0952 68.9291 61.3725 67.3168 60.7609C65.3155 60.0382 62.9805 59.5935 60.2564 59.5379C54.0298 59.4823 52.6956 59.7047 52.6956 59.7047V52.3662L52.8068 52.255C53.5295 51.6435 54.1966 51.0876 54.8082 50.4204C57.8102 47.5295 60.312 44.2495 61.5906 40.3579C61.5906 40.3579 61.5906 40.3579 61.5906 40.3023C61.813 39.6352 61.9798 38.9124 62.1466 38.1897C62.2578 38.1897 62.369 38.1341 62.4802 38.0785C64.4815 37.5226 65.9826 35.8548 66.4273 33.8534C66.5941 33.2418 66.5941 32.5747 66.5385 31.9632C66.4273 30.6289 65.5934 29.517 65.5934 28.1272C65.5934 26.237 65.5378 24.458 65.2043 22.5122C64.8707 20.622 64.3148 18.6762 63.1473 16.3968C59.5893 9.50313 52.5288 5 44.5232 5C42.911 5 41.2988 5.16678 39.7421 5.55594C36.3509 6.38985 33.182 8.00208 30.5691 10.3926C27.845 12.8388 25.8436 16.0076 24.6761 19.5101C23.7866 22.2342 23.4531 25.0139 23.5642 27.7936C23.6198 28.6275 23.6754 29.517 23.7866 30.3509C23.8422 30.9625 24.0646 30.9069 23.6198 31.4628C22.8971 32.4635 22.1744 34.0757 22.8415 36.0771C22.8971 36.2439 22.9527 36.3551 23.0083 36.5219C23.0639 36.6887 23.1751 36.8555 23.2307 37.0222C23.7866 38.0229 24.4538 38.5233 25.2321 38.9124C25.8992 39.246 26.6219 39.524 27.2891 40.0243C27.5114 40.1911 27.7338 40.3579 28.0118 40.5803C27.9006 40.6359 27.845 40.6915 27.7338 40.747L27.6782 40.8026L25.3433 41.5254C13.8353 45.2502 11.1112 56.5358 19.3947 61.3169C19.895 61.5949 20.3954 61.8172 20.9513 62.0396C21.1181 62.0952 21.3405 62.2064 21.5629 62.262C22.3968 62.54 23.2863 62.8179 24.2314 62.9847L21.8964 63.5962C18.6164 66.2092 16.1702 70.0452 14.836 73.9924C13.6685 77.4948 16.2258 81.1084 19.9506 81.1084H78.8804C78.9916 76.3273 77.8797 70.1564 74.2105 65.6532Z" fill="#F0FAFF"/>
<path d="M36.9622 72.6609C30.5133 74.4955 31.7363 73.1612 31.7363 73.1612C31.7363 73.1612 34.5716 68.2689 31.8475 65.2669C29.9017 63.1543 25.7322 62.5427 21.1178 61.82C10.9997 57.6504 13.3347 45.1974 25.5098 41.3058L27.8447 40.583L27.9003 40.5275C28.9566 42.2509 30.2909 44.3079 31.5139 46.0869L30.2353 45.0862L30.0685 45.6977C28.7898 47.2543 25.2318 50.0896 30.958 54.426C36.6842 58.7067 37.7405 58.8179 37.7405 58.8179V58.6511L40.1866 62.4871C40.131 62.5427 43.3555 70.8263 36.9622 72.6609Z" fill="#56B3E8"/>
<path d="M34.0719 15.2877C33.2936 22.0146 28.7905 24.016 23.6202 27.7408C23.5091 24.9611 23.8426 22.1258 24.7321 19.4573C25.844 15.9548 27.901 12.786 30.6251 10.3398C33.238 8.00487 36.4069 6.33704 39.7981 5.50313C41.3548 5.11397 42.967 4.94719 44.5792 4.94719C52.5848 4.94719 59.6453 9.50591 63.2033 16.344C64.3708 18.5678 64.9823 20.5692 65.2603 22.4594C54.1414 27.9076 39.1866 20.2356 34.1275 12.786C34.2387 13.7311 34.1831 14.5094 34.0719 15.2877Z" fill="#56B3E8"/>
<path opacity="0.35" d="M73.3767 80.9444C74.9333 74.0507 72.0424 67.2682 67.7061 60.6525C76.9347 64.0438 79.3252 73.9951 79.3252 80.9444H73.3767Z" fill="#56B3E8"/>
<path opacity="0.35" d="M53.0848 52.0354V56.3162C53.0292 56.3162 52.9736 56.3718 52.918 56.3718C52.8624 56.3718 52.8068 56.4274 52.7512 56.4274C45.0792 59.4295 41.0764 57.8172 38.1855 55.2043L38.2967 53.1473C40.0202 53.8145 42.4107 54.7596 44.1341 55.1487C47.025 55.8714 51.417 53.0361 51.417 53.0361C52.5288 52.5358 52.2509 52.647 53.0848 52.0354Z" fill="#56B3E8"/>
<path d="M30.1797 6.83737L34.1825 12.7859C39.2971 20.3468 54.6411 28.1299 65.76 22.1814L66.4271 21.8478" stroke="#007CC2" stroke-width="2" stroke-linecap="round" stroke-linejoin="round"/>
<path d="M22.3408 28.4635L23.2859 27.9632C27.7335 24.6831 31.7362 22.7929 33.4041 18.2342" stroke="#007CC2" stroke-width="2" stroke-linecap="round" stroke-linejoin="round"/>
<path d="M12.3899 49.7005C11.5004 53.4809 12.8903 57.3725 17.0043 59.9298C20.5623 62.1536 24.5651 61.9312 28.4567 63.0431C30.1245 63.4878 31.7923 64.2662 32.4594 65.934C33.4601 68.3801 32.2371 71.4378 31.292 73.6616C48.0814 72.8277 39.7979 59.2071 35.2947 56.205C30.6248 53.0917 23.8423 50.5344 30.9584 45.1974" stroke="#007CC2" stroke-width="2" stroke-linecap="round" stroke-linejoin="round"/>
<path d="M26.1216 38.5261L23.6198 39.3044C21.0625 40.0827 18.9499 41.2502 17.1709 42.64" stroke="#007CC2" stroke-width="2" stroke-linecap="round" stroke-linejoin="round"/>
<path d="M79.9923 80.9444C79.9923 71.3822 72.6538 58.9291 60.8123 58.9291C53.5294 58.9291 52.8623 58.54 52.8623 58.54V55.8158" stroke="#007CC2" stroke-width="2" stroke-linecap="round" stroke-linejoin="round"/>
<path d="M38.1299 58.54V52.0354" stroke="#007CC2" stroke-width="2" stroke-linecap="round" stroke-linejoin="round"/>
<path d="M11 80.9444C11 74.5511 14.2245 66.9347 19.8951 62.5427L20.6734 61.9312" stroke="#007CC2" stroke-width="2" stroke-linecap="round" stroke-linejoin="round"/>
<path d="M51.7502 51.7019C48.7481 53.87 45.0789 55.1487 41.4096 53.6477C39.2415 52.7582 37.4625 51.2015 35.5723 49.8673C30.3464 46.2536 29.4013 41.8061 27.3443 39.1376C25.2317 36.4135 22.2297 37.303 20.8954 33.6338C20.1727 31.5212 20.951 29.8534 21.7293 28.7971C22.1741 28.1855 22.0073 28.2967 21.8961 27.6296C21.3957 23.7936 21.6181 19.902 22.8412 16.2328C24.0643 12.5636 26.2324 9.22793 29.1233 6.6706C29.9572 5.94788 30.9023 5.22515 31.8474 4.61362" stroke="#007CC2" stroke-width="2" stroke-linecap="round" stroke-linejoin="round"/>
<path d="M39.4082 1.55594C40.9648 1.22237 42.5771 1.05559 44.1337 1.05559C52.6952 1.05559 60.3116 5.83669 64.1476 13.0639C66.7049 17.845 66.7049 21.5142 66.7605 25.4058C66.7605 26.8513 67.65 28.0188 67.7612 29.4086C68.0392 32.4663 66.0934 35.3016 63.0913 35.9687C62.1462 40.8054 59.4777 44.697 55.9753 48.0882C55.8641 48.1994 55.8085 48.255 55.6973 48.3662" stroke="#007CC2" stroke-width="2" stroke-linecap="round" stroke-linejoin="round"/>
<path d="M35.5166 2.779C35.5722 2.779 35.6278 2.7234 35.6834 2.7234" stroke="#007CC2" stroke-width="2" stroke-linecap="round" stroke-linejoin="round"/>
<path d="M1.65449 81H1" stroke="#56B3E8" stroke-width="2" stroke-linecap="round" stroke-linejoin="round"/>
<path d="M10.2225 81H4.3916" stroke="#56B3E8" stroke-width="2" stroke-linecap="round" stroke-linejoin="round"/>
<path d="M13.8518 81H13.1973" stroke="#56B3E8" stroke-width="2" stroke-linecap="round" stroke-linejoin="round"/>
<path d="M69.3649 81H17.541" stroke="#56B3E8" stroke-width="2" stroke-linecap="round" stroke-linejoin="round"/>
<path d="M85.3106 81H72.2803" stroke="#56B3E8" stroke-width="2" stroke-linecap="round" stroke-linejoin="round"/>
<path d="M89.0584 81H88.0469" stroke="#56B3E8" stroke-width="2" stroke-linecap="round" stroke-linejoin="round"/>
</svg>
