<svg width="91" height="82" viewBox="0 0 91 82" fill="none" xmlns="http://www.w3.org/2000/svg">
<path d="M15.9537 67.376C19.1689 66.1226 23.4741 64.4877 29.1417 62.0899C31.2125 61.218 32.5204 59.2561 32.5204 57.0218V46.2861C31.267 44.7602 30.5041 42.9074 30.3406 40.9455L29.4142 40.5095C26.6894 41.1635 26.8529 38.2207 26.1989 32.6076C25.9264 30.2643 26.2534 29.7738 27.2888 29.4469L28.1608 28.3025C22.8747 16.3134 25.545 8.79292 30.7766 6.17711C29.0327 2.3624 28.9237 1 28.9237 1C28.9237 1 40.0409 2.85286 43.8556 2.08992C48.7057 1.10899 56.1717 2.25341 58.951 8.73842C63.5831 10.5368 65.3815 13.4796 65.7629 16.6403C66.4714 21.8174 63.3651 27.5395 62.9837 29.5559C63.8556 29.9373 64.1281 30.4823 63.9101 32.6621C63.2561 38.0027 63.4196 41.327 60.6948 40.564L58.2425 44.8147C57.9155 46.5586 57.97 44.7057 57.97 57.0218C57.97 59.2561 59.3324 61.218 61.3488 62.0899C61.4033 62.0899 61.4033 62.0899 61.4578 62.1444C81.5123 70.4823 83.8556 69.6648 84.891 75.9319C84.9455 76.2589 85 76.5858 85.0545 76.9673C85.109 77.2943 85.109 77.6213 85.1635 77.9482C85.218 78.3842 85.2725 78.9292 85.327 79.4741C85.3815 79.9646 85.436 80.455 85.4905 81H5C6.03542 72.3351 5.43597 71.6267 14.2098 68.0845" fill="white"/>
<path d="M14.21 68.0845C14.7549 67.8665 15.2999 67.6485 15.8993 67.4305L14.21 68.0845Z" fill="white"/>
<path d="M84.5098 81.3678H17.0983C11.2127 81.3678 9.30539 73.4114 14.537 70.7956C17.5888 69.2697 22.8204 67.4714 32.0302 63.6022C33.9375 62.7847 35.191 60.9319 35.191 58.8065V47.1444C34.0465 45.7275 33.3381 43.2207 33.1746 41.3678L32.3027 40.9319C29.7414 41.5313 29.9593 38.8065 29.3054 33.4659C29.0329 31.2316 29.3599 30.7956 30.3408 30.4687L31.1583 29.3787C30.9948 28.9973 30.8313 28.5613 30.6678 28.1798C26.4171 17.7711 28.9239 13.248 33.5561 10.8501C31.9212 7.3079 31.8667 6 31.8667 6C31.8667 6 42.2209 7.74387 45.7632 7.03542C50.2863 6.10899 57.2073 7.19891 59.8231 13.3025C62.2209 14.2834 63.8013 15.5913 64.8367 17.0627C65.3817 21.0409 63.6923 25.2916 62.7114 27.9619C62.3844 28.7793 62.1664 29.4877 62.0574 29.9782C62.9294 30.3597 63.2019 30.9046 62.9839 33.0845C62.3299 38.4251 62.4934 41.7493 59.7686 40.9864L57.3163 45.2371C57.1528 46.0545 57.0983 46.0545 57.0438 47.2534C57.0438 48.5068 57.0438 51.0681 57.0438 57.4441C57.0438 59.6785 58.4062 61.6403 60.4226 62.5123C60.4771 62.5123 60.4771 62.5123 60.5315 62.5668C60.9675 63.0027 61.5125 63.3842 62.1119 63.6022C67.7795 66 71.9212 67.5804 75.0275 68.8338C81.9484 71.6131 83.3108 72.485 83.9648 76.3542C84.0193 76.6812 84.0738 77.0082 84.1283 77.3896C84.1828 77.7166 84.2373 78.0436 84.2373 78.3706C84.2918 78.8065 84.3463 79.3515 84.4008 79.8964C84.4008 80.3324 84.4553 80.8229 84.5098 81.3678Z" fill="#F0FAFF"/>
<path opacity="0.35" d="M77.9154 81C80.6402 76.9128 79.4413 73.0436 74.9727 68.4114C81.8936 71.1907 83.256 72.0627 83.91 75.9319C83.9645 76.2589 84.019 76.5858 84.0735 76.9673C84.128 77.2943 84.1825 77.6213 84.1825 77.9482C84.237 78.3842 84.2915 78.9292 84.346 79.4741C84.4004 79.9646 84.4549 80.455 84.5094 81H77.9154Z" fill="#56B3E8"/>
<path opacity="0.35" d="M56.9893 55.4959C54.646 56.3678 52.3026 57.0763 49.8503 57.4033C47.2345 57.7302 44.5097 57.4578 42.2209 56.2589C40.2045 55.2234 38.7332 53.6431 36.8258 52.3352C35.7904 51.6267 35.1909 50.4823 35.1909 49.2289V48.5204C38.1337 49.8828 40.586 52.9891 43.8558 53.861C46.5261 54.5695 49.4144 53.6975 51.7032 52.1172C53.774 50.7003 55.4089 48.7929 56.9893 46.8311C56.9893 48.0845 56.9893 49.1199 56.9893 55.4959Z" fill="#56B3E8"/>
<path d="M62.6566 27.5395C61.7301 26.7766 60.9127 25.9046 60.1498 24.9237C59.1143 23.5068 58.2424 21.8719 56.88 20.7275C54.5367 18.7112 51.1579 18.6022 48.1062 18.5477C43.3105 18.4932 38.4604 18.3842 33.6102 18.3297C33.3378 21.3815 32.7928 24.4877 31.1579 27.049C30.9944 27.3215 30.7765 27.594 30.5585 27.8665C26.3078 17.4578 28.8146 12.9346 33.4468 10.5368C31.8119 6.99455 31.7574 5.68665 31.7574 5.68665C31.7574 5.68665 42.1116 7.43052 45.6538 6.72207C50.177 5.79564 57.098 6.88556 59.7138 12.9891C62.1116 13.97 63.692 15.2779 64.7274 16.7493C65.3269 20.6185 63.692 24.8692 62.6566 27.5395Z" fill="#56B3E8"/>
<path d="M16.5532 67.2125C20.9129 65.5232 25.9265 63.4523 29.1418 62.0899C31.2126 61.218 32.5205 59.2561 32.5205 57.0218V46.2861" stroke="#007CC2" stroke-width="2" stroke-linecap="round" stroke-linejoin="round"/>
<path d="M11.6484 69.1199C11.7574 69.0654 11.9209 69.0109 12.0299 68.9564" stroke="#007CC2" stroke-width="2" stroke-linecap="round" stroke-linejoin="round"/>
<path d="M5 81C5.54496 76.3134 5.49046 73.5886 7.6703 71.5177" stroke="#007CC2" stroke-width="2" stroke-linecap="round" stroke-linejoin="round"/>
<path d="M31.5939 27.267C31.5394 27.3215 31.5394 27.376 31.4849 27.4305" stroke="#007CC2" stroke-width="2" stroke-linecap="round" stroke-linejoin="round"/>
<path d="M61.8394 29.1199C61.9484 28.7384 62.0574 27.7575 61.9484 26.9401C61.9484 26.9401 61.7305 18.7112 50.1228 18.2752C38.5152 17.8392 37.4798 19.9101 33.883 16.5858C34.973 18.2752 34.7005 21.327 33.3926 24.2698" stroke="#007CC2" stroke-width="2" stroke-linecap="round" stroke-linejoin="round"/>
<path d="M30.3408 41C30.6133 43.6158 31.8667 45.9591 33.8286 47.6485L42.2209 53.5341C44.1828 55.1689 47.0166 55.2234 49.0329 53.643L56.8803 46.5586C58.8967 44.8692 60.1501 42.4714 60.4226 39.8556" stroke="#007CC2" stroke-width="2" stroke-linecap="round" stroke-linejoin="round"/>
<path d="M28.1605 29.1744C26.4711 29.7193 25.8172 29.7193 26.1987 32.6621C26.5801 35.6049 26.6346 37.4578 27.0706 39.2561C27.5066 41.0545 29.4139 40.564 29.4139 40.564" stroke="#007CC2" stroke-width="2" stroke-linecap="round" stroke-linejoin="round"/>
<path d="M85.5448 81C84.7274 74.079 85.2724 71.4632 78.0244 68.7929C73.1198 66.9946 65.7083 63.9428 61.4032 62.1444C59.3323 61.2725 58.0244 59.3106 58.0244 57.0763V52.6076" stroke="#007CC2" stroke-width="2" stroke-linecap="round" stroke-linejoin="round"/>
<path d="M61.9482 29.1744C63.6376 29.7193 64.2916 29.7193 63.9101 32.6621C63.5286 35.6049 63.4741 37.4578 63.0381 39.2561C62.6022 41.0545 60.6948 40.564 60.6948 40.564" stroke="#007CC2" stroke-width="2" stroke-linecap="round" stroke-linejoin="round"/>
<path d="M28.4878 29.0654C22.7657 16.6403 25.436 8.90191 30.7766 6.17711C29.0327 2.3624 28.9238 1 28.9238 1C28.9238 1 40.0409 2.85286 43.8556 2.08992C48.7058 1.10899 56.1717 2.25341 58.951 8.73842C62.7657 10.2643 69.6867 14.2425 63.2017 28.3569" stroke="#007CC2" stroke-width="2" stroke-linecap="round" stroke-linejoin="round"/>
<path d="M1.65449 81H1" stroke="#56B3E8" stroke-width="2" stroke-linecap="round" stroke-linejoin="round"/>
<path d="M10.2225 81H4.3916" stroke="#56B3E8" stroke-width="2" stroke-linecap="round" stroke-linejoin="round"/>
<path d="M13.8518 81H13.1973" stroke="#56B3E8" stroke-width="2" stroke-linecap="round" stroke-linejoin="round"/>
<path d="M69.3649 81H17.541" stroke="#56B3E8" stroke-width="2" stroke-linecap="round" stroke-linejoin="round"/>
<path d="M85.3106 81H72.2803" stroke="#56B3E8" stroke-width="2" stroke-linecap="round" stroke-linejoin="round"/>
<path d="M89.0588 81H88.0474" stroke="#56B3E8" stroke-width="2" stroke-linecap="round" stroke-linejoin="round"/>
</svg>
