<svg width="62" height="63" viewBox="0 0 62 63" fill="none" xmlns="http://www.w3.org/2000/svg">
<path d="M31.0708 61.1415C47.6784 61.1415 61.1415 47.6784 61.1415 31.0708C61.1415 14.4631 47.6784 1 31.0708 1C14.4631 1 1 14.4631 1 31.0708C1 47.6784 14.4631 61.1415 31.0708 61.1415Z" fill="#56B3E8"/>
<path d="M32.1985 61.1415C48.1833 61.1415 61.1416 48.1832 61.1416 32.1984C61.1416 16.2136 48.1833 3.25531 32.1985 3.25531C16.2136 3.25531 3.25537 16.2136 3.25537 32.1984C3.25537 48.1832 16.2136 61.1415 32.1985 61.1415Z" fill="#F0FAFF"/>
<path d="M60.9233 35.0073C59.0644 49.7693 46.38 61.1415 31.1806 61.1415C14.5597 61.1415 1.10986 47.6917 1.10986 31.0708C1.10986 14.4498 14.5597 1 31.1806 1C35.4452 1 39.6004 1.87478 43.2089 3.51501" stroke="#007CC2" stroke-width="2" stroke-linecap="round" stroke-linejoin="round"/>
<path d="M55.8931 14.1217C57.3146 16.1993 58.5174 18.605 59.3922 21.0106" stroke="#007CC2" stroke-width="2" stroke-linecap="round" stroke-linejoin="round"/>
<path d="M31.8879 37.2528L31.1808 36.5457L30.4737 37.2528L23.366 44.3604L23.3452 44.3812L23.3257 44.4032C22.6894 45.119 21.6832 45.489 20.574 45.489C19.5611 45.489 18.5946 45.0725 17.7618 44.3401C17.0904 43.6568 16.6533 42.6113 16.6533 41.5684C16.6533 40.5549 17.0703 39.5879 17.8036 38.7547L24.8896 31.6687L25.5967 30.9616L24.8896 30.2545L17.782 23.1469C17.0992 22.4641 16.6533 21.4081 16.6533 20.3548C16.6533 19.3327 17.0774 18.358 17.8223 17.52C18.4585 16.8042 19.4648 16.4342 20.574 16.4342C21.5875 16.4342 22.5545 16.8512 23.3876 17.5844L30.4737 24.6704L31.1808 25.3775L31.8879 24.6704L38.9955 17.5628L39.0163 17.542L39.0358 17.52C39.6721 16.8042 40.6784 16.4342 41.7875 16.4342C42.8005 16.4342 43.7669 16.8507 44.5997 17.5831C45.2711 18.2664 45.7082 19.3119 45.7082 20.3548C45.7082 21.3683 45.2912 22.3353 44.558 23.1685L37.4719 30.2545L36.7648 30.9616L37.4719 31.6687L44.5796 38.7763C45.2624 39.4591 45.7082 40.5151 45.7082 41.5684C45.7082 42.5905 45.2841 43.5652 44.5393 44.4032C43.903 45.119 42.8967 45.489 41.7875 45.489C40.774 45.489 39.8071 45.072 38.9739 44.3388L31.8879 37.2528Z" fill="white" stroke="#007CC2" stroke-width="2"/>
</svg>
