<svg width="90" height="82" viewBox="0 0 90 82" fill="none" xmlns="http://www.w3.org/2000/svg">
<path d="M9.64942 56.6063C8.19725 54.549 6.80558 52.3708 5.47442 50.0715C3.7197 46.9251 2.38854 43.5972 1.48093 40.0878C0.331291 35.6707 1.29941 31.6167 3.78021 27.9258C4.68782 26.6551 5.65594 25.3845 6.62406 24.1743C9.34689 20.8464 14.006 19.9388 17.5759 22.3591C20.4197 24.2953 23.2031 26.4131 25.8049 28.7124C28.9513 31.4352 29.3143 35.9128 27.015 39.3617C26.2889 40.3903 25.5024 41.3584 24.7158 42.387C23.0216 44.5653 23.1426 46.5015 24.9578 48.4983C29.4353 53.3994 34.6995 57.2719 40.5687 60.4182C42.747 61.5679 44.6832 61.1443 46.2564 59.2081C47.043 58.24 47.7691 57.2114 48.6162 56.2432C51.3995 52.9153 56.1796 52.1287 59.7495 54.6095C62.3513 56.4248 64.8927 58.361 67.3129 60.4182C70.6408 63.1411 71.3064 67.7396 68.9466 71.3096C66.8289 74.456 64.6506 77.6023 61.0807 79.2965C59.568 80.0226 57.9343 80.4462 56.9662 80.8092C52.1256 81.1118 48.0716 80.6882 44.0781 79.6596C29.5563 75.9686 17.9994 68.2842 9.64942 56.6063Z" fill="white"/>
<path d="M66.7682 72.7617C65.3765 74.8795 63.9244 76.9368 62.0486 78.5705L61.9881 78.631C61.7461 78.873 61.4436 79.0545 61.2015 79.236C60.899 79.357 60.657 79.4781 60.3544 79.5991C59.3863 80.0226 58.4182 80.3252 57.6316 80.5672C57.4501 80.6277 57.3291 80.6882 57.2081 80.7487C57.087 80.7487 56.9055 80.7487 56.7845 80.7487C53.6381 80.9302 50.7943 80.7487 48.0714 80.3252C47.7689 80.2647 47.4664 80.2041 47.1638 80.1436C47.1033 80.1436 47.1033 80.1436 47.0428 80.1436C46.7403 80.0831 46.3772 80.0226 46.0747 79.9621C45.5301 79.8411 44.9856 79.7201 44.441 79.5991C27.5594 75.3636 14.7319 65.6219 6.20035 50.374C5.95832 49.89 5.71629 49.4664 5.47426 48.9824C5.23223 48.4983 4.9902 48.0142 4.74817 47.5302C4.56665 47.1671 4.38512 46.7436 4.2036 46.32C4.14309 46.1385 4.02208 45.957 3.96157 45.7755C3.78005 45.4124 3.65904 45.0494 3.53802 44.6863C3.53802 44.6258 3.47751 44.6258 3.47751 44.5653C3.3565 44.1418 3.23548 43.7787 3.17498 43.3552C2.99345 42.7501 2.93295 42.2055 2.81193 41.6005C2.69092 40.8139 2.69092 40.0878 2.69092 39.3617C2.69092 39.2407 2.69092 39.1197 2.69092 38.9986C2.69092 38.8171 2.69092 38.6961 2.75143 38.5146C2.75143 38.4541 2.75143 38.4541 2.75143 38.3936C2.75143 38.2725 2.81193 38.091 2.81193 37.97C2.81193 37.849 2.81193 37.7885 2.87244 37.6675C2.87244 37.5465 2.93295 37.4254 2.93295 37.2439C2.99345 37.0624 2.99345 36.9414 3.05396 36.7599C3.11447 36.4573 3.23548 36.1548 3.29599 35.8523C3.29599 35.7312 3.3565 35.6707 3.41701 35.5497C3.47751 35.4287 3.47751 35.3077 3.53802 35.1867C3.59853 35.0657 3.65904 34.8841 3.71954 34.7631C3.78005 34.5816 3.90107 34.4001 3.96157 34.2186C4.02208 34.158 4.02208 34.037 4.08259 33.9765C4.14309 33.8555 4.2036 33.674 4.32462 33.553C4.50614 33.1899 4.68766 32.8874 4.92969 32.5243C5.05071 32.2823 5.23223 32.0403 5.35324 31.7983C6.20035 30.5881 7.10796 29.4385 8.07607 28.2888C10.6174 25.1424 15.0344 24.2953 18.3623 26.5341C18.6044 26.7156 18.8464 26.8972 19.1489 27.0787C21.7507 28.8939 24.8366 31.4957 26.8334 33.3109C26.9544 33.432 27.0754 33.4925 27.1964 33.6135C27.8015 34.4001 28.225 35.3077 28.4671 36.2758C28.5276 36.5783 28.5881 36.9414 28.6486 37.2439C28.4065 38.091 28.0435 38.8776 27.4989 39.6037C26.8334 40.6323 25.9863 41.6005 25.2602 42.5686C25.1997 42.6291 25.1392 42.7501 25.0786 42.8106C24.7761 43.2341 24.5341 43.6577 24.3526 44.0813C23.9895 44.9889 23.9895 45.836 24.292 46.6831C24.2315 46.8646 24.171 46.9856 24.1105 47.1671C23.7475 48.4983 24.1105 49.7689 25.3207 51.1001C29.5562 55.7592 34.5178 59.3896 40.024 62.3545C42.0812 63.4436 43.8964 63.0201 45.3486 61.2048C46.0747 60.2972 46.8008 59.3291 47.5874 58.4215C49.9472 55.5777 53.8196 54.7306 57.0265 56.3037C57.2081 56.3642 57.3896 56.4853 57.5711 56.6063C57.7526 56.7273 57.9341 56.8483 58.0552 56.9088C60.4754 58.603 62.8957 60.4787 65.195 62.3545C65.316 62.415 65.3765 62.536 65.4976 62.5965C65.5581 62.657 65.6186 62.7175 65.6791 62.778C65.7396 62.8385 65.8001 62.899 65.8606 62.9596C66.3447 63.4436 66.7077 63.9277 67.0102 64.4722C67.0708 64.5933 67.1313 64.6538 67.1918 64.7748C67.2523 64.8353 67.3128 64.9563 67.3128 65.0773C67.4338 65.3193 67.5548 65.5614 67.6153 65.8639C67.6153 65.9244 67.6758 65.9849 67.6758 66.0454C67.7363 66.1664 67.7363 66.2269 67.7363 66.348C67.7968 66.5295 67.7968 66.6505 67.8574 66.832V66.8925C67.9179 67.0741 67.9179 67.1951 67.9179 67.3766C67.9179 67.4976 67.9179 67.5581 67.9179 67.6791C67.9179 67.8001 67.9179 67.8606 67.9179 67.9817C68.1599 69.6759 67.7363 71.3096 66.7682 72.7617Z" fill="#007CC2"/>
<path d="M66.7681 72.7617C65.3765 74.819 64.0453 77.0578 62.0486 78.5704L61.9881 78.6309C61.4435 78.994 60.8989 79.357 60.2938 79.6596C59.4467 80.0831 58.5391 80.3857 57.571 80.6277C57.2685 80.6882 56.9659 80.7487 56.6634 80.8092C56.1188 80.8697 55.5743 80.9302 55.0902 80.9907C52.7304 81.0512 50.3101 80.8092 47.9503 80.4462C47.6478 80.3857 47.3453 80.3252 47.0427 80.2646C46.9822 80.2646 46.9822 80.2646 46.9217 80.2646C46.6192 80.2041 46.2561 80.1436 45.9536 80.0831C45.409 79.9621 44.8645 79.8411 44.3199 79.7201C27.4384 75.4846 14.6108 65.7429 6.07925 50.495C5.83722 50.011 5.59519 49.5874 5.35316 49.1034C5.11113 48.6193 4.8691 48.1352 4.62707 47.6512C4.44555 47.2881 4.26403 46.8646 4.08251 46.441C4.022 46.2595 3.90099 46.078 3.84048 45.8965C3.65896 45.5334 3.53794 45.1704 3.41693 44.8073C3.41693 44.7468 3.35642 44.7468 3.35642 44.6863C3.23541 44.2628 3.11439 43.8997 3.05388 43.4762C2.87236 42.8711 2.81185 42.3265 2.69084 41.7215C2.56982 40.9349 2.56982 40.2088 2.56982 39.4827C2.56982 39.3617 2.56982 39.2407 2.56982 39.1196C2.56982 38.9381 2.56982 38.8171 2.63033 38.6356C2.63033 38.5751 2.63033 38.5751 2.63033 38.5146C2.63033 38.3935 2.69084 38.212 2.69084 38.091C2.69084 37.97 2.69084 37.9095 2.75135 37.7885C2.75135 37.6675 2.81185 37.5464 2.81185 37.3649C2.87236 37.1834 2.87236 37.0624 2.93287 36.8809C2.99338 36.5783 3.11439 36.2758 3.1749 35.9733C3.1749 35.8522 3.23541 35.7917 3.29591 35.6707C3.35642 35.5497 3.35642 35.4287 3.41693 35.3077C3.47743 35.1867 3.53794 35.0051 3.59845 34.8841C3.65896 34.7026 3.77997 34.5211 3.84048 34.3396C3.90099 34.279 3.90099 34.158 3.96149 34.0975C4.022 33.9765 4.08251 33.795 4.20352 33.674C4.38505 33.3109 4.56657 33.0084 4.8086 32.6453C4.92961 32.4033 5.11113 32.1613 5.23215 31.9193C6.07925 30.7091 6.98686 29.5595 7.95498 28.4098C10.4963 25.2635 14.9133 24.4163 18.2412 26.6551C18.4833 26.8366 18.7253 27.0182 19.0278 27.1997C21.6296 29.0149 24.7155 31.6167 26.7123 33.4319C26.4702 34.037 26.1677 34.6421 25.8047 35.2472C25.1391 36.2153 24.3525 37.1229 23.6264 38.091C23.2633 38.5751 22.9608 38.9986 22.7793 39.4827C22.1742 40.9954 22.5373 40.3903 23.8684 41.8425C24.1104 42.0845 24.292 42.3265 24.534 42.5686C24.655 42.6896 24.8365 42.8711 24.9575 42.9921C25.0181 43.0526 25.0786 43.1131 25.1391 43.1736C24.776 43.5972 24.4735 43.9602 24.2315 44.3233C24.171 44.3838 24.1104 44.5048 24.0499 44.5653C23.9894 44.6863 23.9289 44.7468 23.8684 44.8678C23.7474 45.1099 23.6264 45.2914 23.5054 45.5939C22.9608 46.8646 23.1423 46.6226 24.0499 47.4091C24.2315 47.5302 24.413 47.7117 24.5945 47.9537C28.83 52.6128 34.4572 57.5744 39.9634 60.5392C42.0206 61.6284 43.1703 62.5965 44.6224 60.7208C45.3485 59.8132 46.0746 58.845 46.8612 57.9374C49.221 55.0936 53.6985 54.791 57.0265 56.4853C57.208 56.5458 57.3895 56.6668 57.571 56.7878C57.7525 56.9088 57.9341 57.0298 58.0551 57.0903C60.4754 58.7845 62.8957 60.6603 65.1949 62.536C65.316 62.5965 65.3765 62.7175 65.4975 62.778C65.558 62.8385 65.6185 62.899 65.679 62.9595C65.7395 63.02 65.8 63.0806 65.8605 63.1411C66.3446 63.6251 66.7076 64.1092 67.0102 64.6537C67.0707 64.7748 67.1312 64.8353 67.1917 64.9563C67.2522 65.0168 67.3127 65.1378 67.3127 65.2588C67.4337 65.5008 67.5547 65.7429 67.6152 66.0454C67.6152 66.1059 67.6757 66.1664 67.6757 66.2269C67.7363 66.3479 67.7363 66.4085 67.7363 66.5295C67.7968 66.711 67.7968 66.832 67.8573 67.0135V67.074C67.9178 67.2556 67.9178 67.3766 67.9178 67.5581C67.9178 67.6791 67.9178 67.7396 67.9178 67.8606C67.9178 67.9816 67.9178 68.0422 67.9178 68.1632C68.1598 69.6759 67.7363 71.3096 66.7681 72.7617Z" fill="#56B3E8"/>
<path d="M67.0708 64.6538C66.8288 65.3798 66.5262 66.0454 66.1027 66.6505C64.711 68.7683 63.3798 71.007 61.2621 72.5197C59.2653 73.9114 56.845 74.7585 54.4247 74.819C51.7624 74.8795 49.0396 74.577 46.3773 74.0929C45.4697 73.9114 44.562 73.7299 43.6544 73.4878C26.7729 69.2523 13.9453 59.5106 5.41379 44.2628C4.38516 42.387 3.47755 40.4508 2.75146 38.4541V38.3936C2.75146 38.2725 2.81197 38.091 2.81197 37.97C2.81197 37.849 2.81197 37.7885 2.87248 37.6675C2.87248 37.5465 2.93299 37.4254 2.93299 37.2439C2.99349 37.0624 2.99349 36.9414 3.054 36.7599C3.11451 36.4573 3.23552 36.1548 3.29603 35.8523C3.29603 35.7312 3.35654 35.6707 3.41705 35.5497C3.47755 35.4287 3.47755 35.3077 3.53806 35.1867C3.59857 35.0657 3.65908 34.8841 3.71958 34.7631C3.78009 34.5816 3.9011 34.4001 3.96161 34.2186C4.02212 34.158 4.02212 34.037 4.08263 33.9765C4.14313 33.8555 4.20364 33.674 4.32466 33.553C4.50618 33.1899 4.6877 32.8874 4.92973 32.5243C5.05074 32.2823 5.23227 32.0403 5.35328 31.7983C6.20038 30.5881 7.10799 29.4385 8.07611 28.2888C10.6174 25.1424 15.0345 24.2953 18.3624 26.5341C18.6044 26.7156 18.8464 26.8972 19.149 27.0787C21.7508 28.8939 24.8366 31.4957 26.8334 33.3109C26.9544 33.432 27.0754 33.4925 27.1964 33.6135C28.0435 34.4001 28.7091 34.9446 28.9512 35.2472C28.8301 35.6102 28.6486 35.9733 28.4671 36.3363C27.4385 38.3936 25.6838 39.8457 25.0182 41.4189C24.7761 41.9635 24.7156 42.266 24.7156 42.4476C24.7156 42.6896 24.8972 42.7501 25.1392 42.8711C25.1997 42.9316 25.2602 42.9316 25.3207 42.9921C24.9577 43.4157 24.6551 43.7787 24.4131 44.1418C24.3526 44.2023 24.2921 44.3233 24.2316 44.3838C24.1711 44.5048 24.1106 44.5653 24.0501 44.6863C23.929 44.9284 23.808 45.1099 23.687 45.4124C23.1424 46.6831 23.324 46.441 24.2316 47.2276C24.4131 47.3487 24.5946 47.5302 24.7761 47.7722C29.0117 52.4313 34.6388 57.3929 40.145 60.3577C42.2023 61.4469 43.3519 62.415 44.8041 60.5393C45.5302 59.6316 46.2563 58.6635 47.0428 57.7559C49.4026 54.9121 53.8802 54.6095 57.2081 56.3037C57.3896 56.3642 57.5711 56.4853 57.7526 56.6063C57.9342 56.7273 58.1157 56.8483 58.2367 56.9088C60.657 58.603 63.0773 60.4787 65.3766 62.3545C65.4976 62.415 65.5581 62.536 65.6791 62.5965C65.7396 62.657 65.8001 62.7175 65.8606 62.778C65.9211 62.8385 65.9817 62.899 66.0422 62.9596C66.3447 63.6251 66.7077 64.1092 67.0708 64.6538Z" fill="#F0FAFF"/>
<path d="M22.4771 25.929C22.5376 25.929 22.5376 25.9896 22.5981 25.9896" stroke="#007CC2" stroke-width="2" stroke-linecap="round" stroke-linejoin="round"/>
<path d="M9.28638 56.1222C7.95522 54.2465 6.62406 52.1892 5.47442 50.0715C3.7197 46.9251 2.38854 43.5972 1.48093 40.0878C0.331291 35.6707 1.29941 31.6167 3.78021 27.9258C4.68782 26.6551 5.65594 25.3845 6.62406 24.1743C9.34689 20.8464 14.006 19.9388 17.5759 22.3591C18.1205 22.7222 18.665 23.1457 19.2701 23.5088" stroke="#007CC2" stroke-width="2" stroke-linecap="round" stroke-linejoin="round"/>
<path d="M32.3396 75.5451C25.3208 72.1567 17.9994 66.953 11.8276 59.3896" stroke="#007CC2" stroke-width="2" stroke-linecap="round" stroke-linejoin="round"/>
<path d="M25.8048 28.6519C28.9511 31.3747 29.3142 35.8522 27.0149 39.3012C26.2888 40.3298 25.5022 41.2979 24.7156 42.3265C23.0214 44.5048 23.1424 46.441 24.9577 48.4378C29.4352 53.3389 34.6993 57.2113 40.5686 60.3577C42.7468 61.5074 44.6831 61.0838 46.2562 59.1476C47.0428 58.1794 47.7689 57.1508 48.616 56.1827C51.3994 52.8548 56.1795 52.0682 59.7494 54.549C62.3512 56.3642 64.8925 58.3005 67.3128 60.3577C70.6407 63.0805 71.3063 67.6791 68.9465 71.249C65.8606 75.8476 63.3193 79.357 56.9661 80.5067C52.4885 81.3538 44.8646 80.6277 36.4541 77.3603" stroke="#007CC2" stroke-width="2" stroke-linecap="round" stroke-linejoin="round"/>
<path d="M15.8214 30.8906L6.9873 23.8113" stroke="#007CC2" stroke-width="2" stroke-linecap="round" stroke-linejoin="round"/>
<path d="M21.1458 35.1262L19.3911 33.7345" stroke="#007CC2" stroke-width="2" stroke-linecap="round" stroke-linejoin="round"/>
<path d="M62.9565 67.4976L48.7373 56.1827" stroke="#007CC2" stroke-width="2" stroke-linecap="round" stroke-linejoin="round"/>
<path d="M53.4565 32.1613C56.6634 34.8236 59.4468 37.97 61.625 41.5399" stroke="#56B3E8" stroke-width="2" stroke-linecap="round" stroke-linejoin="round"/>
<path d="M37.3013 24.4769C41.5973 25.324 45.5908 26.9577 49.2212 29.1359" stroke="#56B3E8" stroke-width="2" stroke-linecap="round" stroke-linejoin="round"/>
<path d="M69.9751 34.5816C71.3668 36.6993 72.5769 38.8776 73.6055 41.1769" stroke="#56B3E8" stroke-width="2" stroke-linecap="round" stroke-linejoin="round"/>
<path d="M32.521 13.041C45.9536 13.767 57.9341 19.9993 66.1631 29.62" stroke="#56B3E8" stroke-width="2" stroke-linecap="round" stroke-linejoin="round"/>
<path d="M88.1274 47.1066C88.309 47.8932 88.4905 48.7403 88.6115 49.5269" stroke="#56B3E8" stroke-width="2" stroke-linecap="round" stroke-linejoin="round"/>
<path d="M47.9507 3.78333C66.4054 9.59203 80.9877 24.1743 86.8569 42.5685" stroke="#56B3E8" stroke-width="2" stroke-linecap="round" stroke-linejoin="round"/>
<path d="M24.5342 1.24203C26.3494 1.06051 28.1646 1 29.9798 1C32.4606 1 34.8809 1.12101 37.2407 1.42355" stroke="#56B3E8" stroke-width="2" stroke-linecap="round" stroke-linejoin="round"/>
</svg>
