<svg width="86" height="52" viewBox="0 0 86 52" fill="none" xmlns="http://www.w3.org/2000/svg">
<path d="M85 24.4732C85 24.4732 72.2808 52.5183 42.5002 51.9927C12.7196 51.4671 0 24.4732 0 24.4732C0 24.4732 19.5773 9 42.5002 9C65.4231 9 85 24.4732 85 24.4732Z" fill="#56B3E8"/>
<path opacity="0.4" d="M78 19.7742C78 19.7742 62.1084 43 42.5 43C22.8917 43 7 19.7742 7 19.7742C7 19.7742 22.8917 1 42.5 1C62.1084 1 78 19.7742 78 19.7742Z" fill="#56B3E8"/>
<path d="M84.2307 24.4783C84.2307 24.4783 65.6359 47.9565 42.6923 47.9565C19.7486 47.9565 1.15381 24.4783 1.15381 24.4783C1.15381 24.4783 19.7486 5.5 42.6923 5.5C65.6359 5.5 84.2307 24.4783 84.2307 24.4783Z" fill="#F0FAFF"/>
<path d="M84.2307 24.4783C84.2307 24.4783 65.6359 47.9565 42.6923 47.9565C19.7486 47.9565 1.15381 24.4783 1.15381 24.4783C1.15381 24.4783 19.7486 1 42.6923 1C65.6359 1 84.2307 24.4783 84.2307 24.4783Z" stroke="#007CC2" stroke-width="2" stroke-linecap="round" stroke-linejoin="round"/>
<path d="M28.2441 24.4783C28.2441 28.3102 29.7664 31.9851 32.4759 34.6947C35.1855 37.4042 38.8604 38.9264 42.6923 38.9264C46.5242 38.9264 50.1991 37.4042 52.9087 34.6947C55.6183 31.9851 57.1405 28.3102 57.1405 24.4783C57.1405 20.6464 55.6183 16.9714 52.9087 14.2619C50.1991 11.5523 46.5242 10.0301 42.6923 10.0301C38.8604 10.0301 35.1855 11.5523 32.4759 14.2619C29.7664 16.9714 28.2441 20.6464 28.2441 24.4783Z" fill="#56B3E8" stroke="#007CC2" stroke-width="2" stroke-linecap="round" stroke-linejoin="round"/>
<path d="M35 24.5C35 26.4891 35.7902 28.3968 37.1967 29.8033C38.6032 31.2098 40.5109 32 42.5 32C44.4891 32 46.3968 31.2098 47.8033 29.8033C49.2098 28.3968 50 26.4891 50 24.5C50 22.5109 49.2098 20.6032 47.8033 19.1967C46.3968 17.7902 44.4891 17 42.5 17C40.5109 17 38.6032 17.7902 37.1967 19.1967C35.7902 20.6032 35 22.5109 35 24.5Z" fill="#F0FAFF"/>
<path d="M42.6928 17.2542C44.1216 17.2542 45.5183 17.6779 46.7063 18.4717C47.8943 19.2655 48.8202 20.3937 49.367 21.7137C49.9138 23.0338 50.0568 24.4863 49.7781 25.8876C49.4994 27.2889 48.8113 28.5761 47.801 29.5865C46.7907 30.5968 45.5035 31.2848 44.1022 31.5635C42.7008 31.8423 41.2483 31.6992 39.9283 31.1524C38.6083 30.6057 37.48 29.6797 36.6862 28.4917C35.8924 27.3038 35.4688 25.907 35.4688 24.4783" stroke="#007CC2" stroke-width="2" stroke-linecap="round" stroke-linejoin="round"/>
</svg>
