<svg width="63" height="63" viewBox="0 0 63 63" fill="none" xmlns="http://www.w3.org/2000/svg">
<path d="M14.0828 12.5205C13.7899 12.9111 13.3993 13.3016 13.1064 13.6921" stroke="#56B3E8" stroke-width="2" stroke-linecap="round" stroke-linejoin="round"/>
<path d="M31.0708 61.1415C47.6784 61.1415 61.1415 47.6784 61.1415 31.0708C61.1415 14.4631 47.6784 1 31.0708 1C14.4631 1 1 14.4631 1 31.0708C1 47.6784 14.4631 61.1415 31.0708 61.1415Z" fill="#56B3E8"/>
<path d="M32.1985 61.1415C48.1833 61.1415 61.1416 48.1832 61.1416 32.1984C61.1416 16.2136 48.1833 3.25531 32.1985 3.25531C16.2136 3.25531 3.25537 16.2136 3.25537 32.1984C3.25537 48.1832 16.2136 61.1415 32.1985 61.1415Z" fill="#F0FAFF"/>
<path d="M21.5028 59.5794C9.59164 55.5765 1 44.3487 1 31.0708C1 14.4733 14.4733 1 31.0708 1C32.7305 1 34.2926 1.09763 35.8547 1.39053" stroke="#007CC2" stroke-width="2" stroke-linecap="round" stroke-linejoin="round"/>
<path d="M57.2366 16.1331C59.775 20.5265 61.1419 25.6034 61.1419 31.0708C61.1419 47.6683 47.6686 61.1416 31.0711 61.1416C30.8759 61.1416 30.6806 61.1416 30.3877 61.1416" stroke="#007CC2" stroke-width="2" stroke-linecap="round" stroke-linejoin="round"/>
<path d="M43.8604 3.83147C45.6177 4.61253 47.1799 5.58885 48.742 6.76044" stroke="#007CC2" stroke-width="2" stroke-linecap="round" stroke-linejoin="round"/>
<path d="M28.2391 42.8844C27.1652 42.8844 26.0912 42.4939 25.4078 41.7128L17.0114 33.3165C15.4493 31.7544 15.4493 29.2159 17.0114 27.5562C18.5735 25.994 21.112 25.994 22.7717 27.5562L28.3368 33.1212L41.029 20.429C42.5911 18.8669 45.1295 18.8669 46.7893 20.429C48.3514 21.9911 48.3514 24.5296 46.7893 26.1893L31.1681 41.8105C30.2894 42.3963 29.3131 42.8844 28.2391 42.8844Z" fill="white" stroke="#007CC2" stroke-width="2" stroke-linecap="round" stroke-linejoin="round"/>
</svg>
